<svg xmlns="http://www.w3.org/2000/svg" width="93.297" height="79.193" viewBox="0 0 93.297 79.193">
  <g id="Groupe_1158" data-name="Groupe 1158" transform="translate(-897 -2052.288)">
    <g id="Groupe_1129" data-name="Groupe 1129" transform="translate(897 2052.288)">
      <g id="Groupe_1128" data-name="Groupe 1128" transform="translate(0 0)">
        <g id="Groupe_1105" data-name="Groupe 1105" transform="translate(17.408 0.572)">
          <path id="Tracé_809" data-name="Tracé 809" d="M329.989,444.637h0a8.565,8.565,0,0,0,8.565-8.566l-.085-60.916a8.566,8.566,0,0,1,8.565-8.567H287.285a8.567,8.567,0,0,0-8.567,8.567v58.116Z" transform="translate(-278.718 -366.587)" fill="#fff"/>
        </g>
        <g id="Groupe_1106" data-name="Groupe 1106" transform="translate(25.975 0.001)">
          <rect id="Rectangle_474" data-name="Rectangle 474" width="58.828" height="1.143" fill="#2e2e2e"/>
        </g>
        <g id="Groupe_1107" data-name="Groupe 1107" transform="translate(76.75 0.567)">
          <path id="Tracé_810" data-name="Tracé 810" d="M330.742,381.832H346.6v-7.316a7.927,7.927,0,0,0-7.926-7.928,7.02,7.02,0,0,0-6.617,4.2C330.023,375.3,330.742,381.832,330.742,381.832Z" transform="translate(-330.619 -366.583)" fill="#fff"/>
        </g>
        <g id="Groupe_1108" data-name="Groupe 1108" transform="translate(76.873)">
          <path id="Tracé_811" data-name="Tracé 811" d="M347.152,382.475H330.727v-1.143h15.281v-6.745a7.364,7.364,0,0,0-7.354-7.356v-1.143a8.508,8.508,0,0,1,8.5,8.5Z" transform="translate(-330.727 -366.087)" fill="#2e2e2e"/>
        </g>
        <g id="Groupe_1109" data-name="Groupe 1109" transform="translate(16.836)">
          <path id="Tracé_812" data-name="Tracé 812" d="M279.361,410.325h-1.143v-35.1a9.15,9.15,0,0,1,9.139-9.139v1.143a8,8,0,0,0-8,8Z" transform="translate(-278.218 -366.087)" fill="#2e2e2e"/>
        </g>
        <g id="Groupe_1110" data-name="Groupe 1110" transform="translate(0.572 63.378)">
          <path id="Tracé_813" data-name="Tracé 813" d="M332.38,436.761a7.929,7.929,0,0,1-7.927-7.927l.063-7.316H263.993v7.316a7.928,7.928,0,0,0,7.928,7.927Z" transform="translate(-263.993 -421.518)" fill="#fff"/>
        </g>
        <g id="Groupe_1111" data-name="Groupe 1111" transform="translate(8.496 78.05)">
          <rect id="Rectangle_475" data-name="Rectangle 475" width="60.182" height="1.143" fill="#2e2e2e"/>
        </g>
        <g id="Groupe_1112" data-name="Groupe 1112" transform="translate(0 62.806)">
          <path id="Tracé_814" data-name="Tracé 814" d="M332.452,437.4a8.509,8.509,0,0,1-8.5-8.5l.057-6.745H264.636v6.745a7.364,7.364,0,0,0,7.356,7.355V437.4a8.509,8.509,0,0,1-8.5-8.5v-7.888h61.671l-.067,7.892a7.363,7.363,0,0,0,7.355,7.352Z" transform="translate(-263.493 -421.018)" fill="#2e2e2e"/>
        </g>
        <g id="Groupe_1113" data-name="Groupe 1113" transform="translate(68.679)">
          <path id="Tracé_815" data-name="Tracé 815" d="M323.56,445.28v-1.143a8,8,0,0,0,7.993-7.994l-.085-60.916a9.149,9.149,0,0,1,9.137-9.139v1.143a8,8,0,0,0-7.993,8l.085,60.915A9.148,9.148,0,0,1,323.56,445.28Z" transform="translate(-323.56 -366.087)" fill="#2e2e2e"/>
        </g>
        <g id="Groupe_1114" data-name="Groupe 1114" transform="translate(16.923 34.958)">
          <rect id="Rectangle_476" data-name="Rectangle 476" width="1.143" height="28.246" fill="#2e2e2e"/>
        </g>
        <g id="Groupe_1126" data-name="Groupe 1126" transform="translate(28.434 46.243)">
          <rect id="Rectangle_482" data-name="Rectangle 482" width="38.542" height="1.143" fill="#2e2e2e"/>
        </g>
        <g id="Groupe_1142" data-name="Groupe 1142" transform="translate(28.434 39.202)">
          <rect id="Rectangle_482-2" data-name="Rectangle 482" width="38.542" height="1.143" fill="#2e2e2e"/>
        </g>
        <g id="Groupe_1143" data-name="Groupe 1143" transform="translate(28.434 32.161)">
          <rect id="Rectangle_482-3" data-name="Rectangle 482" width="38.542" height="1.143" fill="#2e2e2e"/>
        </g>
        <g id="Groupe_1144" data-name="Groupe 1144" transform="translate(52.975 25.119)">
          <rect id="Rectangle_482-4" data-name="Rectangle 482" width="14" height="1.143" fill="#2e2e2e"/>
        </g>
        <g id="Groupe_1145" data-name="Groupe 1145" transform="translate(53.078 18.078)">
          <rect id="Rectangle_482-5" data-name="Rectangle 482" width="13.897" height="1.143" transform="translate(0)" fill="#2e2e2e"/>
        </g>
        <g id="Groupe_1127" data-name="Groupe 1127" transform="translate(28.434 53.535)">
          <rect id="Rectangle_483" data-name="Rectangle 483" width="38.54" height="1.143" fill="#2e2e2e"/>
        </g>
      </g>
    </g>
    <g id="Groupe_1152" data-name="Groupe 1152" transform="translate(920.764 2061.716)">
      <g id="Groupe_1149" data-name="Groupe 1149" transform="translate(0 0)">
        <rect id="Rectangle_497" data-name="Rectangle 497" width="28.165" height="18.322" fill="#c5d8de"/>
      </g>
      <g id="Groupe_1150" data-name="Groupe 1150" transform="translate(3.61 5.334)">
        <path id="Tracé_825" data-name="Tracé 825" d="M67.743,157.431a5.562,5.562,0,1,1-5.563-5.561A5.562,5.562,0,0,1,67.743,157.431Z" transform="translate(-56.619 -151.87)" fill="#fff"/>
      </g>
      <g id="Groupe_1151" data-name="Groupe 1151" transform="translate(11.51 3.501)">
        <path id="Tracé_826" data-name="Tracé 826" d="M66.2,157.283a3.422,3.422,0,1,1,3.422-3.422A3.426,3.426,0,0,1,66.2,157.283Zm0-5.561a2.14,2.14,0,1,0,2.14,2.14A2.143,2.143,0,0,0,66.2,151.722Z" transform="translate(-62.781 -150.44)" fill="#2e2e2e"/>
      </g>
    </g>
  </g>
</svg>
