<svg xmlns="http://www.w3.org/2000/svg" width="112.961" height="130.137" viewBox="0 0 112.961 130.137">
  <g id="Groupe_674" data-name="Groupe 674" transform="translate(-949.167 -753)">
    <path id="Tracé_443" data-name="Tracé 443" d="M353.845,561.015A49.846,49.846,0,1,1,304,511.171,49.846,49.846,0,0,1,353.845,561.015Z" transform="translate(706.162 272.277)" fill="#63c4ca"/>
    <g id="Groupe_652" data-name="Groupe 652" transform="translate(1015.517 829.145)">
      <path id="Tracé_450" data-name="Tracé 450" d="M317.446,566.858h-5.591a.825.825,0,1,1,0-1.649h5.591a.825.825,0,0,1,0,1.649Z" transform="translate(-311.03 -565.209)" fill="#46577b"/>
    </g>
    <g id="Groupe_673" data-name="Groupe 673" transform="translate(953.996 788.61)">
      <path id="Tracé_444" data-name="Tracé 444" d="M264.125,559.078H242.441a4.869,4.869,0,0,0-4.871,4.87v32.879a4.869,4.869,0,0,0,4.871,4.869h21.378c-.051-.079-.107-.148-.156-.229Z" transform="translate(-236.745 -523.08)" fill="#f9cb6b"/>
      <g id="Groupe_649" data-name="Groupe 649" transform="translate(0 35.173)">
        <path id="Tracé_445" data-name="Tracé 445" d="M263.794,602.5H242.416a5.7,5.7,0,0,1-5.7-5.694V563.923a5.7,5.7,0,0,1,5.7-5.7H264.1a.825.825,0,1,1,0,1.65H242.416a4.05,4.05,0,0,0-4.046,4.045V596.8a4.05,4.05,0,0,0,4.046,4.045h20.65a.912.912,0,0,1,.135-.106.826.826,0,0,1,1.137.264l.148.216a.825.825,0,0,1-.691,1.275Z" transform="translate(-236.72 -558.228)" fill="#46577b"/>
      </g>
      <path id="Tracé_446" data-name="Tracé 446" d="M316.241,577.938a6.5,6.5,0,0,0,5.4-6.54c0-3.084-3.33-6.094-6.348-6.283a5.182,5.182,0,0,0,3.584-5.092c0-3.715-3.7-6.664-7.8-6.664v-.06H293.7l4.113-15.94s.652-5.232-.734-8.4c-1.9-4.333-5.45-6.965-7.934-5.876-2.4,1.052-1.923,4.582-1.892,7.983s-4.582,9.532-6.845,12.251c-3.224,3.884-8.028,8.11-11.465,11.206a52.884,52.884,0,0,0-6.2,6.364,13.451,13.451,0,0,0-2.176,4.826c-.578,2.246.117,29.328.958,30.659,2.175,3.446,6.506,5.831,10.334,6.474.986.169,37.358.047,37.968.047,4.1,0,7.416-3.013,7.416-6.727a6.448,6.448,0,0,0-2.473-5.006,7.008,7.008,0,0,0,6.622-6.687A6.527,6.527,0,0,0,316.241,577.938Z" transform="translate(-237.416 -522.013)" fill="#fff"/>
      <path id="Tracé_447" data-name="Tracé 447" d="M316.241,577.938a6.5,6.5,0,0,0,5.4-6.54c0-3.084-3.33-6.094-6.348-6.283a5.182,5.182,0,0,0,3.584-5.092c0-3.715-3.7-6.664-7.8-6.664v-.06H293.7l4.113-15.94s.652-5.232-.734-8.4c-1.9-4.333-5.45-6.965-7.934-5.876-2.4,1.052-1.923,4.582-1.892,7.983s-4.582,9.532-6.845,12.251c-3.224,3.884-8.028,8.11-11.465,11.206a52.884,52.884,0,0,0-6.2,6.364,13.451,13.451,0,0,0-2.176,4.826c-.578,2.246.117,29.328.958,30.659,2.175,3.446,6.506,5.831,10.334,6.474.986.169,37.358.047,37.968.047,4.1,0,7.416-3.013,7.416-6.727a6.448,6.448,0,0,0-2.473-5.006,7.008,7.008,0,0,0,6.622-6.687A6.527,6.527,0,0,0,316.241,577.938Z" transform="translate(-237.416 -522.013)" fill="#fff"/>
      <g id="Groupe_650" data-name="Groupe 650" transform="translate(22.143)">
        <path id="Tracé_448" data-name="Tracé 448" d="M285.9,603.737c-13.609,0-14.008-.068-14.2-.1-3.657-.614-8.445-2.969-10.893-6.845-1.022-1.619-1.605-29.185-1.06-31.306a14.33,14.33,0,0,1,2.331-5.135,53.246,53.246,0,0,1,6.3-6.462l.881-.792a108.809,108.809,0,0,0,10.5-10.328c3.088-3.711,6.683-9,6.655-11.716,0-.461-.017-.925-.029-1.384-.082-3.064-.168-6.233,2.415-7.363a3.789,3.789,0,0,1,1.534-.316c2.7,0,5.783,2.72,7.487,6.616,1.46,3.335.824,8.608.8,8.83a.892.892,0,0,1-.019.1l-3.847,14.91H311.06a.823.823,0,0,1,.324.066c4.531.154,8.3,3.518,8.3,7.483a6.183,6.183,0,0,1-2.162,4.8c2.71,1.143,4.926,3.908,4.926,6.573a7.3,7.3,0,0,1-3.9,6.584,7.4,7.4,0,0,1,3.644,6.491,7.639,7.639,0,0,1-5.768,7.207,7.129,7.129,0,0,1,1.618,4.486c0,4.165-3.7,7.552-8.24,7.552l-1.018,0C305.493,603.706,294.9,603.737,285.9,603.737Zm4.431-80.1a2.172,2.172,0,0,0-.873.176c-1.46.64-1.513,2.621-1.427,5.808.012.47.024.942.029,1.413.042,3.969-5.375,10.79-7.037,12.785a109.93,109.93,0,0,1-10.666,10.5l-.88.791a51.84,51.84,0,0,0-6.111,6.266,12.878,12.878,0,0,0-2.022,4.517c-.568,2.207.2,28.343.888,30.07,2.145,3.388,6.446,5.49,9.742,6.043.254.027,2.429.079,13.925.079,9,0,19.593-.031,22.884-.04l1.023,0c3.634,0,6.591-2.649,6.591-5.9a5.649,5.649,0,0,0-2.168-4.365.825.825,0,0,1,.441-1.462,6.17,6.17,0,0,0,5.877-5.867,5.7,5.7,0,0,0-4.513-5.731.826.826,0,0,1,.025-1.614,5.668,5.668,0,0,0,4.74-5.73c0-2.753-3.066-5.3-5.575-5.459a.825.825,0,0,1,.051-1.648,4.518,4.518,0,0,0,2.76-4.268c0-3.164-3.193-5.839-6.973-5.839a.8.8,0,0,1-.311-.061H293.678a.824.824,0,0,1-.8-1.03l4.1-15.886c.059-.53.534-5.155-.676-7.916C294.875,526.005,292.362,523.639,290.327,523.639Z" transform="translate(-259.535 -521.988)" fill="#46577b"/>
      </g>
      <g id="Groupe_651" data-name="Groupe 651" transform="translate(22.143)">
        <path id="Tracé_449" data-name="Tracé 449" d="M285.9,603.737c-13.609,0-14.008-.068-14.2-.1-3.657-.614-8.445-2.969-10.893-6.845-1.022-1.619-1.605-29.185-1.06-31.306a14.33,14.33,0,0,1,2.331-5.135,53.246,53.246,0,0,1,6.3-6.462l.881-.792a108.809,108.809,0,0,0,10.5-10.328c3.088-3.711,6.683-9,6.655-11.716,0-.461-.017-.925-.029-1.384-.082-3.064-.168-6.233,2.415-7.363a3.789,3.789,0,0,1,1.534-.316c2.7,0,5.783,2.72,7.487,6.616,1.46,3.335.824,8.608.8,8.83a.892.892,0,0,1-.019.1l-3.847,14.91H311.06a.823.823,0,0,1,.324.066c4.531.154,8.3,3.518,8.3,7.483a6.183,6.183,0,0,1-2.162,4.8c2.71,1.143,4.926,3.908,4.926,6.573a7.3,7.3,0,0,1-3.9,6.584,7.4,7.4,0,0,1,3.644,6.491,7.639,7.639,0,0,1-5.768,7.207,7.129,7.129,0,0,1,1.618,4.486c0,4.165-3.7,7.552-8.24,7.552l-1.018,0C305.493,603.706,294.9,603.737,285.9,603.737Zm4.431-80.1a2.172,2.172,0,0,0-.873.176c-1.46.64-1.513,2.621-1.427,5.808.012.47.024.942.029,1.413.042,3.969-5.375,10.79-7.037,12.785a109.93,109.93,0,0,1-10.666,10.5l-.88.791a51.84,51.84,0,0,0-6.111,6.266,12.878,12.878,0,0,0-2.022,4.517c-.568,2.207.2,28.343.888,30.07,2.145,3.388,6.446,5.49,9.742,6.043.254.027,2.429.079,13.925.079,9,0,19.593-.031,22.884-.04l1.023,0c3.634,0,6.591-2.649,6.591-5.9a5.649,5.649,0,0,0-2.168-4.365.825.825,0,0,1,.441-1.462,6.17,6.17,0,0,0,5.877-5.867,5.7,5.7,0,0,0-4.513-5.731.826.826,0,0,1,.025-1.614,5.668,5.668,0,0,0,4.74-5.73c0-2.753-3.066-5.3-5.575-5.459a.825.825,0,0,1,.051-1.648,4.518,4.518,0,0,0,2.76-4.268c0-3.164-3.193-5.839-6.973-5.839a.8.8,0,0,1-.311-.061H293.678a.824.824,0,0,1-.8-1.03l4.1-15.886c.059-.53.534-5.155-.676-7.916C294.875,526.005,292.362,523.639,290.327,523.639Z" transform="translate(-259.535 -521.988)" fill="#46577b"/>
      </g>
      <g id="Groupe_653" data-name="Groupe 653" transform="translate(72.122 55.106)">
        <path id="Tracé_451" data-name="Tracé 451" d="M317.446,580.415h-5.591a.825.825,0,1,1,0-1.649h5.591a.825.825,0,0,1,0,1.649Z" transform="translate(-311.03 -578.766)" fill="#46577b"/>
      </g>
      <g id="Groupe_654" data-name="Groupe 654" transform="translate(72.122 68.43)">
        <path id="Tracé_452" data-name="Tracé 452" d="M316.5,594.143h-4.64a.825.825,0,1,1,0-1.649h4.64a.825.825,0,1,1,0,1.649Z" transform="translate(-311.03 -592.494)" fill="#46577b"/>
      </g>
    </g>
    <path id="Tracé_455" data-name="Tracé 455" d="M371.218,529.138l2.823,5.717,6.3.916-4.564,4.451,1.078,6.28-5.641-2.965-5.642,2.965,1.079-6.28-4.567-4.451,6.309-.916Z" transform="translate(681.782 272.772)" fill="#f9cb6b"/>
    <path id="Tracé_470" data-name="Tracé 470" d="M375.477,529.138l4.139,8.384,9.245,1.343-6.692,6.527,1.58,9.209-8.273-4.348L367.2,554.6l1.582-9.209-6.7-6.527,9.251-1.343Z" transform="translate(626.656 224.007)" fill="#f9cb6b"/>
    <path id="Tracé_471" data-name="Tracé 471" d="M371.218,529.138l2.823,5.717,6.3.916-4.564,4.451,1.078,6.28-5.641-2.965-5.642,2.965,1.079-6.28-4.567-4.451,6.309-.916Z" transform="translate(587.078 259.344)" fill="#f9cb6b"/>
    <g id="Groupe_670" data-name="Groupe 670" transform="translate(1040.63 774.202)">
      <g id="Groupe_666" data-name="Groupe 666" transform="translate(0 5.327)">
        <g id="Groupe_664" data-name="Groupe 664">
          <path id="Tracé_466" data-name="Tracé 466" d="M339.933,515.737h-2.2a.824.824,0,1,1,0-1.649h2.2a.824.824,0,1,1,0,1.649Z" transform="translate(-336.905 -514.088)" fill="#46577b"/>
        </g>
        <g id="Groupe_665" data-name="Groupe 665" transform="translate(8.45)">
          <path id="Tracé_467" data-name="Tracé 467" d="M348.64,515.737h-2.2a.824.824,0,1,1,0-1.649h2.2a.824.824,0,1,1,0,1.649Z" transform="translate(-345.611 -514.088)" fill="#46577b"/>
        </g>
      </g>
      <g id="Groupe_669" data-name="Groupe 669" transform="translate(5.327)">
        <g id="Groupe_667" data-name="Groupe 667">
          <path id="Tracé_468" data-name="Tracé 468" d="M343.218,512.452a.823.823,0,0,1-.824-.824v-2.205a.824.824,0,0,1,1.649,0v2.205A.823.823,0,0,1,343.218,512.452Z" transform="translate(-342.394 -508.599)" fill="#46577b"/>
        </g>
        <g id="Groupe_668" data-name="Groupe 668" transform="translate(0 8.452)">
          <path id="Tracé_469" data-name="Tracé 469" d="M343.218,521.16a.823.823,0,0,1-.824-.824v-2.205a.824.824,0,0,1,1.649,0v2.205A.824.824,0,0,1,343.218,521.16Z" transform="translate(-342.394 -517.307)" fill="#46577b"/>
        </g>
      </g>
    </g>
    <g id="Groupe_671" data-name="Groupe 671" transform="translate(1022.962 753)">
      <g id="Groupe_666-2" data-name="Groupe 666" transform="translate(0 5.327)">
        <g id="Groupe_664-2" data-name="Groupe 664">
          <path id="Tracé_466-2" data-name="Tracé 466" d="M339.933,515.737h-2.2a.824.824,0,1,1,0-1.649h2.2a.824.824,0,1,1,0,1.649Z" transform="translate(-336.905 -514.088)" fill="#46577b"/>
        </g>
        <g id="Groupe_665-2" data-name="Groupe 665" transform="translate(8.45)">
          <path id="Tracé_467-2" data-name="Tracé 467" d="M348.64,515.737h-2.2a.824.824,0,1,1,0-1.649h2.2a.824.824,0,1,1,0,1.649Z" transform="translate(-345.611 -514.088)" fill="#46577b"/>
        </g>
      </g>
      <g id="Groupe_669-2" data-name="Groupe 669" transform="translate(5.327)">
        <g id="Groupe_667-2" data-name="Groupe 667">
          <path id="Tracé_468-2" data-name="Tracé 468" d="M343.218,512.452a.823.823,0,0,1-.824-.824v-2.205a.824.824,0,0,1,1.649,0v2.205A.823.823,0,0,1,343.218,512.452Z" transform="translate(-342.394 -508.599)" fill="#46577b"/>
        </g>
        <g id="Groupe_668-2" data-name="Groupe 668" transform="translate(0 8.452)">
          <path id="Tracé_469-2" data-name="Tracé 469" d="M343.218,521.16a.823.823,0,0,1-.824-.824v-2.205a.824.824,0,0,1,1.649,0v2.205A.824.824,0,0,1,343.218,521.16Z" transform="translate(-342.394 -517.307)" fill="#46577b"/>
        </g>
      </g>
    </g>
    <g id="Groupe_672" data-name="Groupe 672" transform="translate(949.461 761.481)">
      <g id="Groupe_666-3" data-name="Groupe 666" transform="translate(0 5.327)">
        <g id="Groupe_664-3" data-name="Groupe 664">
          <path id="Tracé_466-3" data-name="Tracé 466" d="M339.933,515.737h-2.2a.824.824,0,1,1,0-1.649h2.2a.824.824,0,1,1,0,1.649Z" transform="translate(-336.905 -514.088)" fill="#46577b"/>
        </g>
        <g id="Groupe_665-3" data-name="Groupe 665" transform="translate(8.45)">
          <path id="Tracé_467-3" data-name="Tracé 467" d="M348.64,515.737h-2.2a.824.824,0,1,1,0-1.649h2.2a.824.824,0,1,1,0,1.649Z" transform="translate(-345.611 -514.088)" fill="#46577b"/>
        </g>
      </g>
      <g id="Groupe_669-3" data-name="Groupe 669" transform="translate(5.327)">
        <g id="Groupe_667-3" data-name="Groupe 667">
          <path id="Tracé_468-3" data-name="Tracé 468" d="M343.218,512.452a.823.823,0,0,1-.824-.824v-2.205a.824.824,0,0,1,1.649,0v2.205A.823.823,0,0,1,343.218,512.452Z" transform="translate(-342.394 -508.599)" fill="#46577b"/>
        </g>
        <g id="Groupe_668-3" data-name="Groupe 668" transform="translate(0 8.452)">
          <path id="Tracé_469-3" data-name="Tracé 469" d="M343.218,521.16a.823.823,0,0,1-.824-.824v-2.205a.824.824,0,0,1,1.649,0v2.205A.824.824,0,0,1,343.218,521.16Z" transform="translate(-342.394 -517.307)" fill="#46577b"/>
        </g>
      </g>
    </g>
  </g>
</svg>
