<svg xmlns="http://www.w3.org/2000/svg" width="102.453" height="77.779" viewBox="0 0 102.453 77.779">
  <g id="Groupe_1157" data-name="Groupe 1157" transform="translate(-670.921 -2058.227)">
    <path id="Tracé_828" data-name="Tracé 828" d="M1009.5,1959.306v21.117s7.521,8,25.505,8,24.731-8.891,24.731-8.891V1957.75Z" transform="translate(-313.91 123.228)" fill="#f17046" stroke="#000" stroke-width="1"/>
    <path id="Tracé_827" data-name="Tracé 827" d="M1031.485,1932.75l-48.235,15.115,48.235,24.229,49.125-24.229Z" transform="translate(-311 126)" fill="#f17046" stroke="#000" stroke-width="1"/>
    <path id="Tracé_829" data-name="Tracé 829" d="M995,1972.813V1954.03l36.9-6.78" transform="translate(-312.303 124.392)" fill="none" stroke="#000" stroke-width="1"/>
    <g id="Groupe_1153" data-name="Groupe 1153" transform="translate(679.645 2092.777)">
      <path id="Tracé_522" data-name="Tracé 522" d="M339.374,514.057c0,1.612-2.92,9.417-2.92,9.417s-2.919-7.806-2.919-9.417a2.919,2.919,0,1,1,5.838,0Z" transform="translate(-333.536 -511.137)" fill="#f9cb6b"/>
    </g>
    <path id="Tracé_833" data-name="Tracé 833" d="M1013.333,1994.6c24.007-8.595,67.278-24.6,67.278-24.6s10.373,2.075,5.038,11.262c-16.3,8-65.8,29.341-65.8,29.341S1022.225,2000.23,1013.333,1994.6Z" transform="translate(-314.335 121.87)" fill="#fff" stroke="#000" stroke-width="1"/>
    <g id="Ellipse_27" data-name="Ellipse 27" transform="translate(692.211 2118.694) rotate(-22)" fill="#fff" stroke="#000" stroke-width="1">
      <ellipse cx="5.779" cy="9.336" rx="5.779" ry="9.336" stroke="none"/>
      <ellipse cx="5.779" cy="9.336" rx="5.279" ry="8.836" fill="none"/>
    </g>
    <path id="Tracé_834" data-name="Tracé 834" d="M1043.5,1985.89c6.076,1.185,10.818,5.335,8.447,13.041s0,12.744,0,12.744l3.853-5.928,5.038,1.482s-5.631-7.113-2.371-11.855,1.185-12.151-6.52-13.041A85.667,85.667,0,0,0,1043.5,1985.89Z" transform="translate(-315.012 119.614)" fill="#63c4ca" stroke="#000" stroke-width="1"/>
    <path id="Tracé_835" data-name="Tracé 835" d="M1009.495,2008.7s-.741-5.631,4-5.038,4.742,4.446,3.853,6.817" transform="translate(-313.905 117.254)" fill="none" stroke="#000" stroke-width="1"/>
  </g>
</svg>
