<svg xmlns="http://www.w3.org/2000/svg" width="139.123" height="130.302" viewBox="0 0 139.123 130.302">
  <g id="Groupe_1159" data-name="Groupe 1159" transform="translate(-876 -2252.476)">
    <g id="Groupe_1146" data-name="Groupe 1146" transform="translate(876 2273.896)">
      <g id="Groupe_1094" data-name="Groupe 1094" transform="translate(0 0)">
        <g id="Groupe_1066" data-name="Groupe 1066" transform="translate(5.437 64.453)">
          <rect id="Rectangle_452" data-name="Rectangle 452" width="129.691" height="32.317" fill="#a5a5a5"/>
        </g>
        <g id="Groupe_1067" data-name="Groupe 1067" transform="translate(19.847 37.522)">
          <rect id="Rectangle_453" data-name="Rectangle 453" width="107.01" height="26.931" fill="#f9cb6b"/>
        </g>
        <g id="Groupe_1068" data-name="Groupe 1068" transform="translate(1.434 15.439)">
          <rect id="Rectangle_454" data-name="Rectangle 454" width="113.679" height="22.622" fill="#63c4ca"/>
        </g>
        <g id="Groupe_1077" data-name="Groupe 1077" transform="translate(12.229 21.633)">
          <rect id="Rectangle_458" data-name="Rectangle 458" width="1.625" height="10.234" fill="#fff"/>
        </g>
        <g id="Groupe_1078" data-name="Groupe 1078" transform="translate(87.522 19.21)">
          <rect id="Rectangle_459" data-name="Rectangle 459" width="1.625" height="15.081" fill="#fff"/>
        </g>
        <g id="Groupe_1079" data-name="Groupe 1079" transform="translate(79.883 19.21)">
          <rect id="Rectangle_460" data-name="Rectangle 460" width="1.625" height="15.081" fill="#fff"/>
        </g>
        <g id="Groupe_1080" data-name="Groupe 1080" transform="translate(26.883 40.754)">
          <rect id="Rectangle_461" data-name="Rectangle 461" width="1.625" height="20.468" fill="#fff"/>
        </g>
        <g id="Groupe_1081" data-name="Groupe 1081" transform="translate(81.793 41.831)">
          <rect id="Rectangle_462" data-name="Rectangle 462" width="1.625" height="18.313" fill="#fff"/>
        </g>
        <g id="Groupe_1082" data-name="Groupe 1082" transform="translate(75.108 41.831)">
          <rect id="Rectangle_463" data-name="Rectangle 463" width="1.625" height="18.313" fill="#fff"/>
        </g>
        <g id="Groupe_1083" data-name="Groupe 1083" transform="translate(68.422 41.831)">
          <rect id="Rectangle_464" data-name="Rectangle 464" width="1.625" height="18.313" fill="#fff"/>
        </g>
        <g id="Groupe_1084" data-name="Groupe 1084" transform="translate(58.396 67.685)">
          <rect id="Rectangle_465" data-name="Rectangle 465" width="1.625" height="25.854" fill="#fff"/>
        </g>
        <g id="Groupe_1085" data-name="Groupe 1085" transform="translate(13.371 75.103)">
          <rect id="Rectangle_466" data-name="Rectangle 466" width="37.244" height="12.927" fill="#fff"/>
        </g>
        <g id="Groupe_1086" data-name="Groupe 1086" transform="translate(38.916 43.447)">
          <rect id="Rectangle_467" data-name="Rectangle 467" width="9.071" height="15.082" fill="#fff"/>
        </g>
        <g id="Groupe_1087" data-name="Groupe 1087" transform="translate(119.035 13.052)">
          <rect id="Rectangle_468" data-name="Rectangle 468" width="1.625" height="17.189" fill="#2e2e2e"/>
        </g>
        <g id="Groupe_1088" data-name="Groupe 1088" transform="translate(126.357 0)">
          <rect id="Rectangle_469" data-name="Rectangle 469" width="1.625" height="21.328" fill="#2e2e2e"/>
        </g>
        <g id="Groupe_1089" data-name="Groupe 1089" transform="translate(137.498 25.785)">
          <rect id="Rectangle_470" data-name="Rectangle 470" width="1.625" height="16.234" fill="#2e2e2e"/>
        </g>
        <g id="Groupe_1090" data-name="Groupe 1090" transform="translate(51.568 101.051)">
          <rect id="Rectangle_471" data-name="Rectangle 471" width="31.515" height="1.625" fill="#aebdc1"/>
        </g>
        <g id="Groupe_1091" data-name="Groupe 1091" transform="translate(0 107.258)">
          <rect id="Rectangle_472" data-name="Rectangle 472" width="56.343" height="1.625" fill="#aebdc1"/>
        </g>
      </g>
    </g>
    <path id="Tracé_831" data-name="Tracé 831" d="M1009.5,1958.988v16.806s5.986,6.368,20.3,6.368,19.682-7.076,19.682-7.076V1957.75Z" transform="translate(-89.559 312.94)" fill="#f17046" stroke="#000" stroke-width="1"/>
    <path id="Tracé_830" data-name="Tracé 830" d="M1021.638,1932.75l-38.388,12.03,38.388,19.282,39.1-19.282Z" transform="translate(-81.884 320.25)" fill="#f17046" stroke="#000" stroke-width="1"/>
    <path id="Tracé_832" data-name="Tracé 832" d="M995,1967.594v-14.948l29.366-5.4" transform="translate(-85.319 316.01)" fill="none" stroke="#000" stroke-width="1"/>
    <g id="Groupe_1154" data-name="Groupe 1154" transform="translate(907.252 2280.08)">
      <path id="Tracé_522" data-name="Tracé 522" d="M338.182,513.461c0,1.283-2.324,7.495-2.324,7.495s-2.323-6.212-2.323-7.495a2.323,2.323,0,1,1,4.646,0Z" transform="translate(-333.536 -511.137)" fill="#f9cb6b"/>
    </g>
  </g>
</svg>
