<svg xmlns="http://www.w3.org/2000/svg" width="321.953" height="289.194" viewBox="0 0 321.953 289.194">
  <g id="Groupe_2689" data-name="Groupe 2689" transform="translate(-177.146 -438.225)">
    <g id="Groupe_2636" data-name="Groupe 2636" transform="translate(435.765 467.118)">
      <g id="Groupe_2634" data-name="Groupe 2634" transform="translate(0 11.273)">
        <rect id="Rectangle_1320" data-name="Rectangle 1320" width="25.711" height="3.171" fill="#2e2e2e"/>
      </g>
      <g id="Groupe_2635" data-name="Groupe 2635" transform="translate(11.268)">
        <rect id="Rectangle_1321" data-name="Rectangle 1321" width="3.171" height="25.717" fill="#2e2e2e"/>
      </g>
    </g>
    <g id="Groupe_2637" data-name="Groupe 2637" transform="translate(205.924 520.72)">
      <rect id="Rectangle_1322" data-name="Rectangle 1322" width="163.091" height="177.074" fill="#7ad1ee"/>
    </g>
    <g id="Groupe_2659" data-name="Groupe 2659" transform="translate(223.787 489.497)">
      <g id="Groupe_2638" data-name="Groupe 2638">
        <rect id="Rectangle_1323" data-name="Rectangle 1323" width="215.127" height="186.017" fill="#f9cb6b"/>
      </g>
      <g id="Groupe_2643" data-name="Groupe 2643" transform="translate(25.424 21.734)">
        <g id="Groupe_2639" data-name="Groupe 2639" transform="translate(0 0.365)">
          <rect id="Rectangle_1324" data-name="Rectangle 1324" width="53.781" height="17.572" fill="#fff"/>
        </g>
        <g id="Groupe_2642" data-name="Groupe 2642" transform="translate(65.515)">
          <g id="Groupe_2640" data-name="Groupe 2640">
            <rect id="Rectangle_1325" data-name="Rectangle 1325" width="86.05" height="3.171" fill="#2e2e2e"/>
          </g>
          <g id="Groupe_2641" data-name="Groupe 2641" transform="translate(0 15.137)">
            <rect id="Rectangle_1326" data-name="Rectangle 1326" width="86.05" height="3.171" fill="#2e2e2e"/>
          </g>
        </g>
      </g>
      <g id="Groupe_2648" data-name="Groupe 2648" transform="translate(25.424 59.584)">
        <g id="Groupe_2644" data-name="Groupe 2644" transform="translate(0 0.372)">
          <rect id="Rectangle_1327" data-name="Rectangle 1327" width="53.781" height="17.572" fill="#fff"/>
        </g>
        <g id="Groupe_2647" data-name="Groupe 2647" transform="translate(65.515)">
          <g id="Groupe_2645" data-name="Groupe 2645">
            <rect id="Rectangle_1328" data-name="Rectangle 1328" width="86.05" height="3.171" fill="#2e2e2e"/>
          </g>
          <g id="Groupe_2646" data-name="Groupe 2646" transform="translate(0 15.144)">
            <rect id="Rectangle_1329" data-name="Rectangle 1329" width="86.05" height="3.171" fill="#2e2e2e"/>
          </g>
        </g>
      </g>
      <g id="Groupe_2653" data-name="Groupe 2653" transform="translate(25.424 97.44)">
        <g id="Groupe_2649" data-name="Groupe 2649" transform="translate(0 0.366)">
          <rect id="Rectangle_1330" data-name="Rectangle 1330" width="53.781" height="17.572" fill="#fff"/>
        </g>
        <g id="Groupe_2652" data-name="Groupe 2652" transform="translate(65.515)">
          <g id="Groupe_2650" data-name="Groupe 2650">
            <rect id="Rectangle_1331" data-name="Rectangle 1331" width="86.05" height="3.171" fill="#2e2e2e"/>
          </g>
          <g id="Groupe_2651" data-name="Groupe 2651" transform="translate(0 15.138)">
            <rect id="Rectangle_1332" data-name="Rectangle 1332" width="86.05" height="3.171" fill="#2e2e2e"/>
          </g>
        </g>
      </g>
      <g id="Groupe_2658" data-name="Groupe 2658" transform="translate(25.424 135.29)">
        <g id="Groupe_2654" data-name="Groupe 2654" transform="translate(0 0.372)">
          <rect id="Rectangle_1333" data-name="Rectangle 1333" width="53.781" height="17.572" fill="#fff"/>
        </g>
        <g id="Groupe_2657" data-name="Groupe 2657" transform="translate(65.515)">
          <g id="Groupe_2655" data-name="Groupe 2655">
            <rect id="Rectangle_1334" data-name="Rectangle 1334" width="86.05" height="3.171" fill="#2e2e2e"/>
          </g>
          <g id="Groupe_2656" data-name="Groupe 2656" transform="translate(0 15.144)">
            <rect id="Rectangle_1335" data-name="Rectangle 1335" width="86.05" height="3.171" fill="#2e2e2e"/>
          </g>
        </g>
      </g>
    </g>
    <g id="Groupe_2681" data-name="Groupe 2681" transform="translate(348.953 577.274)">
      <g id="Groupe_2660" data-name="Groupe 2660">
        <path id="Tracé_1575" data-name="Tracé 1575" d="M381.47,557.147A75.074,75.074,0,1,1,306.4,482.072,75.074,75.074,0,0,1,381.47,557.147Z" transform="translate(-231.323 -482.072)" fill="#c5d8de"/>
      </g>
      <g id="Groupe_2661" data-name="Groupe 2661" transform="translate(13.842 13.836)">
        <path id="Tracé_1576" data-name="Tracé 1576" d="M358.151,547.674a61.231,61.231,0,1,1-61.23-61.239A61.229,61.229,0,0,1,358.151,547.674Z" transform="translate(-235.688 -486.435)" fill="#fff"/>
      </g>
      <g id="Groupe_2662" data-name="Groupe 2662" transform="translate(37.069 40.019)">
        <path id="Tracé_1577" data-name="Tracé 1577" d="M281.256,535.694l-38.244-15.15,1.168-2.948L280.544,532l39.383-37.311,2.18,2.3Z" transform="translate(-243.012 -494.691)" fill="#2e2e2e"/>
      </g>
      <g id="Groupe_2665" data-name="Groupe 2665" transform="translate(74.074 19.356)">
        <g id="Groupe_2663" data-name="Groupe 2663">
          <rect id="Rectangle_1336" data-name="Rectangle 1336" width="3.171" height="7.03" fill="#2e2e2e"/>
        </g>
        <g id="Groupe_2664" data-name="Groupe 2664" transform="translate(0 105.337)">
          <rect id="Rectangle_1337" data-name="Rectangle 1337" width="3.171" height="7.036" fill="#2e2e2e"/>
        </g>
      </g>
      <g id="Groupe_2668" data-name="Groupe 2668" transform="translate(46.193 26.089)">
        <g id="Groupe_2666" data-name="Groupe 2666" transform="translate(0 0)">
          <rect id="Rectangle_1338" data-name="Rectangle 1338" width="3.172" height="7.038" transform="translate(0 1.586) rotate(-30.004)" fill="#2e2e2e"/>
        </g>
        <g id="Groupe_2667" data-name="Groupe 2667" transform="translate(52.667 91.222)">
          <rect id="Rectangle_1339" data-name="Rectangle 1339" width="3.172" height="7.038" transform="translate(0 1.586) rotate(-30.006)" fill="#2e2e2e"/>
        </g>
      </g>
      <g id="Groupe_2671" data-name="Groupe 2671" transform="translate(26.205 46.07)">
        <g id="Groupe_2669" data-name="Groupe 2669" transform="translate(0 0)">
          <rect id="Rectangle_1340" data-name="Rectangle 1340" width="3.174" height="7.041" transform="translate(0 2.75) rotate(-60.024)" fill="#2e2e2e"/>
        </g>
        <g id="Groupe_2670" data-name="Groupe 2670" transform="translate(91.227 52.672)">
          <rect id="Rectangle_1341" data-name="Rectangle 1341" width="3.173" height="7.034" transform="translate(0 2.749) rotate(-60.049)" fill="#2e2e2e"/>
        </g>
      </g>
      <g id="Groupe_2674" data-name="Groupe 2674" transform="translate(19.472 73.955)">
        <g id="Groupe_2672" data-name="Groupe 2672">
          <rect id="Rectangle_1342" data-name="Rectangle 1342" width="7.038" height="3.171" fill="#2e2e2e"/>
        </g>
        <g id="Groupe_2673" data-name="Groupe 2673" transform="translate(105.337)">
          <rect id="Rectangle_1343" data-name="Rectangle 1343" width="7.039" height="3.171" fill="#2e2e2e"/>
        </g>
      </g>
      <g id="Groupe_2677" data-name="Groupe 2677" transform="translate(26.206 46.072)">
        <g id="Groupe_2675" data-name="Groupe 2675" transform="translate(0 52.671)">
          <rect id="Rectangle_1344" data-name="Rectangle 1344" width="7.038" height="3.173" transform="translate(0 3.51) rotate(-29.917)" fill="#2e2e2e"/>
        </g>
        <g id="Groupe_2676" data-name="Groupe 2676" transform="translate(91.226 0)">
          <rect id="Rectangle_1345" data-name="Rectangle 1345" width="7.037" height="3.169" transform="translate(0 3.521) rotate(-30.024)" fill="#2e2e2e"/>
        </g>
      </g>
      <g id="Groupe_2680" data-name="Groupe 2680" transform="translate(46.193 26.089)">
        <g id="Groupe_2678" data-name="Groupe 2678" transform="translate(0 91.222)">
          <rect id="Rectangle_1346" data-name="Rectangle 1346" width="7.038" height="3.172" transform="translate(0 6.095) rotate(-60.005)" fill="#2e2e2e"/>
        </g>
        <g id="Groupe_2679" data-name="Groupe 2679" transform="translate(52.667 0)">
          <rect id="Rectangle_1347" data-name="Rectangle 1347" width="7.038" height="3.172" transform="translate(0 6.095) rotate(-60.005)" fill="#2e2e2e"/>
        </g>
      </g>
    </g>
    <g id="Groupe_2682" data-name="Groupe 2682" transform="translate(177.146 441.911)">
      <path id="Tracé_1578" data-name="Tracé 1578" d="M198.358,481.808A21.211,21.211,0,1,1,219.567,460.6,21.235,21.235,0,0,1,198.358,481.808Zm0-39.25A18.039,18.039,0,1,0,216.4,460.6,18.063,18.063,0,0,0,198.358,442.558Z" transform="translate(-177.146 -439.387)" fill="#2e2e2e"/>
    </g>
    <g id="Groupe_2683" data-name="Groupe 2683" transform="translate(188.718 495.549)">
      <path id="Tracé_1579" data-name="Tracé 1579" d="M200.073,465.945a9.639,9.639,0,1,1-9.637-9.644A9.633,9.633,0,0,1,200.073,465.945Z" transform="translate(-180.795 -456.301)" fill="#c5d8de"/>
    </g>
    <g id="Groupe_2684" data-name="Groupe 2684" transform="translate(188.718 528.256)">
      <path id="Tracé_1580" data-name="Tracé 1580" d="M200.073,476.252a9.639,9.639,0,1,1-9.637-9.637A9.637,9.637,0,0,1,200.073,476.252Z" transform="translate(-180.795 -466.615)" fill="#c5d8de"/>
    </g>
    <g id="Groupe_2685" data-name="Groupe 2685" transform="translate(184.688 438.225)">
      <path id="Tracé_1581" data-name="Tracé 1581" d="M193.312,472.355,179.524,460.1l2.106-2.372L193.077,467.9l26.978-29.677,2.347,2.131Z" transform="translate(-179.524 -438.225)" fill="#2e2e2e"/>
    </g>
    <g id="Groupe_2686" data-name="Groupe 2686" transform="translate(250.97 464.777)">
      <rect id="Rectangle_1348" data-name="Rectangle 1348" width="88.534" height="3.171" fill="#2e2e2e"/>
    </g>
    <g id="Groupe_2687" data-name="Groupe 2687" transform="translate(296.014 449.243)">
      <rect id="Rectangle_1349" data-name="Rectangle 1349" width="114.939" height="3.171" fill="#2e2e2e"/>
    </g>
    <g id="Groupe_2688" data-name="Groupe 2688" transform="translate(258.735 689.995)">
      <rect id="Rectangle_1350" data-name="Rectangle 1350" width="83.875" height="3.171" fill="#2e2e2e"/>
    </g>
  </g>
</svg>
