<?xml version="1.0" encoding="utf-8"?>
<!-- Generator: Adobe Illustrator 23.0.6, SVG Export Plug-In . SVG Version: 6.00 Build 0)  -->
<svg version="1.1" id="Calque_1" xmlns="http://www.w3.org/2000/svg" xmlns:xlink="http://www.w3.org/1999/xlink" x="0px" y="0px"
	 viewBox="0 0 137.72 68.65" style="enable-background:new 0 0 137.72 68.65;" xml:space="preserve">
<style type="text/css">
	.st0{fill:#00DBD3;}
	.st1{fill:#004899;}
	.st2{fill:#FFFFFF;}
</style>
<g>
	<polygon class="st0" points="38.34,61.14 1.47,34.9 38.34,8.65 11.39,34.9 	"/>
	<polygon class="st0" points="99.69,61.14 136.56,34.9 99.69,8.65 126.64,34.9 	"/>
	<circle class="st1" cx="69.04" cy="34.9" r="32.97"/>
	<g>
		<g>
			<path class="st2" d="M84.66,31.74c-1.1-3.88-2.47-5.89-3.73-7.03c-2.17-1.97-3.31-1.34-6.85,0.89c-3.55,2.25-6.41,5.85-6.24,6.38
				c0.16,0.54,3.82-1.63,4.99-0.44c1.18,1.19,3.71,7.45,2.82,14.23c-0.46,3.41-1.78,5.25-0.53,6.09c0.79,0.53,5.91-2.32,8.75-7.68
				C85.52,41.1,85.91,36.18,84.66,31.74z M77.38,18.81c-0.2-0.79-3.65,1.36-6.76-1.51c-3.12-2.87-4.05-7.26-4.51-5.27
				c-0.46,1.99-0.09,6.02,0.17,7.68c0.25,1.67,0.36,2.14-0.44,3.21c-0.8,1.07-2.25,3.32-0.02,1.68c1.03-0.75,1.58-1.54,4.8-3.03
				C73.9,20.06,77.59,19.59,77.38,18.81z"/>
		</g>
		<g>
			<path class="st2" d="M59.88,31.06c1.45-1.69,4.02-4.16,3.59-4.54c-0.44-0.37-2.26,2.35-4.98,0.53c-2.73-1.82-4.39-3.56-3.39-0.96
				c1,2.6,1.99,4.95,1.6,6.28c-0.38,1.32-2.89,4.58-1.04,3.32c1.84-1.27,2.71-1.58,2.98-1.28c1.44,1.65,0.04,3.8-1.66,8.21
				c-1.69,4.41-1.65,5.95,4.05,8.76c6.13,3.03,6.77,1.21,4.87-3.03C64.9,46.13,57.76,33.53,59.88,31.06z"/>
		</g>
	</g>
</g>
</svg>
