<svg xmlns="http://www.w3.org/2000/svg" xmlns:xlink="http://www.w3.org/1999/xlink" width="149.333" height="86.488" viewBox="0 0 149.333 86.488">
  <defs>
    <linearGradient id="linear-gradient" x1="0.105" y1="3.471" x2="1.153" y2="3.471" gradientUnits="objectBoundingBox">
      <stop offset="0" stop-color="#45a536"/>
      <stop offset="1" stop-color="#1f552a"/>
    </linearGradient>
  </defs>
  <g id="Groupe_1065" data-name="Groupe 1065" transform="translate(-222.725 -377.464)">
    <g id="Groupe_1059" data-name="Groupe 1059" transform="translate(225.404 431.94)">
      <path id="Tracé_757" data-name="Tracé 757" d="M225.417,439.969l3.042-7.766,1.111.008,3.133,7.808-1.173-.008-.893-2.366-3.255-.022-.871,2.353Zm2.267-3.181,2.64.016-.8-2.16c-.244-.658-.423-1.2-.541-1.619a9.968,9.968,0,0,1-.43,1.484Z" transform="translate(-225.417 -432.203)" fill="#2a8335"/>
      <path id="Tracé_758" data-name="Tracé 758" d="M235.7,440.515l.928.145a.882.882,0,0,0,.32.628,1.587,1.587,0,0,0,.97.273,1.709,1.709,0,0,0,1.026-.259,1.308,1.308,0,0,0,.494-.74,5.975,5.975,0,0,0,.078-1.226,1.965,1.965,0,0,1-1.566.729,2.13,2.13,0,0,1-1.794-.852,3.225,3.225,0,0,1-.624-2.017,3.8,3.8,0,0,1,.3-1.489,2.342,2.342,0,0,1,.854-1.046,2.28,2.28,0,0,1,1.308-.363,2.016,2.016,0,0,1,1.64.818l0-.681.882.006-.032,4.875a4.631,4.631,0,0,1-.281,1.866,1.981,1.981,0,0,1-.857.863,2.948,2.948,0,0,1-1.432.308,2.708,2.708,0,0,1-1.627-.466A1.536,1.536,0,0,1,235.7,440.515Zm.815-3.382a2.44,2.44,0,0,0,.428,1.622,1.454,1.454,0,0,0,2.209.018,2.373,2.373,0,0,0,.459-1.587,2.327,2.327,0,0,0-.449-1.565,1.422,1.422,0,0,0-1.106-.532,1.374,1.374,0,0,0-1.086.51A2.29,2.29,0,0,0,236.511,437.133Z" transform="translate(-225.465 -432.213)" fill="#2a8335"/>
      <path id="Tracé_759" data-name="Tracé 759" d="M241.933,440.081l.052-7.786.956.007-.053,7.785Z" transform="translate(-225.496 -432.203)" fill="#2a8335"/>
      <path id="Tracé_760" data-name="Tracé 760" d="M244.043,437.285a2.907,2.907,0,0,1,.888-2.315,2.617,2.617,0,0,1,1.778-.614,2.531,2.531,0,0,1,1.895.774,2.9,2.9,0,0,1,.724,2.111,3.725,3.725,0,0,1-.337,1.711,2.3,2.3,0,0,1-.958.962,2.756,2.756,0,0,1-1.363.336,2.533,2.533,0,0,1-1.91-.773A3.029,3.029,0,0,1,244.043,437.285Zm.983.008a2.4,2.4,0,0,0,.461,1.625,1.522,1.522,0,0,0,1.186.547,1.505,1.505,0,0,0,1.187-.534,2.451,2.451,0,0,0,.484-1.648,2.339,2.339,0,0,0-.464-1.59,1.575,1.575,0,0,0-2.371-.017A2.386,2.386,0,0,0,245.026,437.293Z" transform="translate(-225.506 -432.213)" fill="#2a8335"/>
      <path id="Tracé_761" data-name="Tracé 761" d="M251.342,440.144l-.888-.006.054-7.785.955.006-.019,2.778a1.9,1.9,0,0,1,1.551-.748,2.379,2.379,0,0,1,.984.217,2.026,2.026,0,0,1,.76.594,2.845,2.845,0,0,1,.464.921,3.738,3.738,0,0,1,.162,1.147,3.227,3.227,0,0,1-.732,2.237,2.245,2.245,0,0,1-1.726.777,1.794,1.794,0,0,1-1.561-.843Zm.007-2.861a2.954,2.954,0,0,0,.267,1.467,1.367,1.367,0,0,0,2.3.21,3.181,3.181,0,0,0,.041-3.253,1.333,1.333,0,0,0-1.056-.532,1.373,1.373,0,0,0-1.087.536A2.388,2.388,0,0,0,251.349,437.283Z" transform="translate(-225.537 -432.204)" fill="#2a8335"/>
      <path id="Tracé_762" data-name="Tracé 762" d="M260.221,439.518a3.55,3.55,0,0,1-1.027.632,2.991,2.991,0,0,1-1.055.178,2.047,2.047,0,0,1-1.425-.464,1.5,1.5,0,0,1-.492-1.163,1.571,1.571,0,0,1,.692-1.3,2.353,2.353,0,0,1,.689-.309,7.289,7.289,0,0,1,.851-.137,8.8,8.8,0,0,0,1.708-.316c.005-.132.005-.215.006-.25a1.053,1.053,0,0,0-.265-.826,1.6,1.6,0,0,0-1.087-.332,1.7,1.7,0,0,0-1,.23,1.441,1.441,0,0,0-.481.834l-.934-.134a2.316,2.316,0,0,1,.428-.966,1.822,1.822,0,0,1,.847-.562,3.749,3.749,0,0,1,1.282-.19,3.428,3.428,0,0,1,1.172.177,1.548,1.548,0,0,1,.66.433,1.475,1.475,0,0,1,.294.652,5.323,5.323,0,0,1,.043.882l-.009,1.275a13.364,13.364,0,0,0,.05,1.686,2.068,2.068,0,0,0,.238.68l-1-.007A2.023,2.023,0,0,1,260.221,439.518Zm-.065-2.136a6.866,6.866,0,0,1-1.564.351,3.7,3.7,0,0,0-.835.185.835.835,0,0,0-.379.309.826.826,0,0,0-.136.453.811.811,0,0,0,.286.64,1.246,1.246,0,0,0,.846.26,1.968,1.968,0,0,0,.984-.235,1.492,1.492,0,0,0,.637-.657,2.315,2.315,0,0,0,.159-.954Z" transform="translate(-225.565 -432.214)" fill="#2a8335"/>
      <path id="Tracé_763" data-name="Tracé 763" d="M262.594,440.22l.052-7.786.956.006-.054,7.787Z" transform="translate(-225.595 -432.204)" fill="#2a8335"/>
      <path id="Tracé_764" data-name="Tracé 764" d="M268.059,440.258l.052-7.785.955,0-.052,7.786Z" transform="translate(-225.622 -432.204)" fill="#2a8335"/>
      <path id="Tracé_765" data-name="Tracé 765" d="M270.514,440.275l.037-5.641.956.007-.039,5.639Zm.045-6.687.007-1.1.955.008-.007,1.1Z" transform="translate(-225.633 -432.204)" fill="#2a8335"/>
      <path id="Tracé_766" data-name="Tracé 766" d="M273.16,440.293l.034-4.9-.844-.006,0-.743.844.006,0-.6a2.666,2.666,0,0,1,.107-.844,1.225,1.225,0,0,1,.49-.6,1.752,1.752,0,0,1,.975-.224,4.627,4.627,0,0,1,.893.1l-.148.833a3.307,3.307,0,0,0-.563-.058.837.837,0,0,0-.616.182,1.008,1.008,0,0,0-.187.695l0,.521,1.1,0-.006.744-1.1-.006-.033,4.9Z" transform="translate(-225.642 -432.204)" fill="#2a8335"/>
      <path id="Tracé_767" data-name="Tracé 767" d="M279.844,438.532l.986.129a2.4,2.4,0,0,1-.874,1.336,2.929,2.929,0,0,1-3.575-.307,2.974,2.974,0,0,1-.711-2.144,3.124,3.124,0,0,1,.747-2.2,2.486,2.486,0,0,1,1.907-.772,2.411,2.411,0,0,1,1.842.782,3.06,3.06,0,0,1,.7,2.173c0,.057,0,.142-.006.255l-4.207-.028a2.162,2.162,0,0,0,.517,1.425,1.564,1.564,0,0,0,1.175.5,1.472,1.472,0,0,0,.9-.269A1.848,1.848,0,0,0,279.844,438.532Zm-3.128-1.566,3.149.021a1.9,1.9,0,0,0-.354-1.069,1.46,1.46,0,0,0-1.179-.561,1.516,1.516,0,0,0-1.111.433A1.743,1.743,0,0,0,276.716,436.965Z" transform="translate(-225.658 -432.214)" fill="#2a8335"/>
      <path id="Tracé_768" data-name="Tracé 768" d="M284.713,438.7l.946-.142a1.317,1.317,0,0,0,.437.873,1.544,1.544,0,0,0,1.015.311,1.5,1.5,0,0,0,.979-.262.805.805,0,0,0,.323-.627.58.58,0,0,0-.279-.513,4.269,4.269,0,0,0-.975-.328,9.167,9.167,0,0,1-1.454-.47,1.393,1.393,0,0,1-.817-1.3,1.456,1.456,0,0,1,.177-.7,1.535,1.535,0,0,1,.474-.53,1.973,1.973,0,0,1,.61-.275,2.847,2.847,0,0,1,.827-.108,3.253,3.253,0,0,1,1.164.2,1.6,1.6,0,0,1,.736.522,2.027,2.027,0,0,1,.323.877l-.935.12a1.018,1.018,0,0,0-.365-.68,1.338,1.338,0,0,0-.861-.251,1.571,1.571,0,0,0-.941.21.634.634,0,0,0-.285.51.518.518,0,0,0,.114.333.834.834,0,0,0,.365.257c.095.037.377.12.841.252a11.474,11.474,0,0,1,1.413.453,1.429,1.429,0,0,1,.626.507,1.39,1.39,0,0,1,.224.819,1.6,1.6,0,0,1-.286.9,1.79,1.79,0,0,1-.809.649,2.95,2.95,0,0,1-1.191.222,2.647,2.647,0,0,1-1.672-.467A2.137,2.137,0,0,1,284.713,438.7Z" transform="translate(-225.701 -432.215)" fill="#2a8335"/>
      <path id="Tracé_769" data-name="Tracé 769" d="M294.244,438.38l.939.128a2.452,2.452,0,0,1-.8,1.516,2.291,2.291,0,0,1-1.562.539,2.417,2.417,0,0,1-1.857-.769,3.063,3.063,0,0,1-.689-2.174,3.931,3.931,0,0,1,.313-1.6,2.106,2.106,0,0,1,.929-1.023,2.729,2.729,0,0,1,1.349-.331,2.345,2.345,0,0,1,1.5.475,2.131,2.131,0,0,1,.74,1.324l-.932.137a1.539,1.539,0,0,0-.464-.858,1.216,1.216,0,0,0-.812-.293,1.485,1.485,0,0,0-1.179.512,2.456,2.456,0,0,0-.461,1.634,2.533,2.533,0,0,0,.424,1.654,1.42,1.42,0,0,0,1.133.523,1.351,1.351,0,0,0,.942-.338A1.724,1.724,0,0,0,294.244,438.38Z" transform="translate(-225.728 -432.215)" fill="#2a8335"/>
      <path id="Tracé_770" data-name="Tracé 770" d="M296.019,440.448l.04-5.641.955.007-.039,5.64Zm.046-6.686.009-1.1.954.008-.007,1.1Z" transform="translate(-225.756 -432.205)" fill="#2a8335"/>
      <path id="Tracé_771" data-name="Tracé 771" d="M302.315,438.684l.986.128a2.409,2.409,0,0,1-.875,1.34,2.932,2.932,0,0,1-3.575-.309,2.972,2.972,0,0,1-.709-2.142,3.106,3.106,0,0,1,.746-2.2,2.48,2.48,0,0,1,1.907-.773,2.409,2.409,0,0,1,1.842.782,3.052,3.052,0,0,1,.7,2.171c0,.058,0,.143-.008.256l-4.2-.029a2.171,2.171,0,0,0,.517,1.427,1.564,1.564,0,0,0,1.175.5,1.458,1.458,0,0,0,.9-.27A1.846,1.846,0,0,0,302.315,438.684Zm-3.129-1.566,3.149.021a1.909,1.909,0,0,0-.353-1.069,1.459,1.459,0,0,0-1.181-.559,1.512,1.512,0,0,0-1.109.431A1.739,1.739,0,0,0,299.186,437.117Z" transform="translate(-225.766 -432.215)" fill="#2a8335"/>
      <path id="Tracé_772" data-name="Tracé 772" d="M304.52,440.515l.039-5.641.861.006-.006.8a2.03,2.03,0,0,1,1.8-.918,2.377,2.377,0,0,1,.937.19,1.468,1.468,0,0,1,.638.486,1.862,1.862,0,0,1,.293.708,5.563,5.563,0,0,1,.046.931l-.024,3.467-.955-.007.024-3.43a2.623,2.623,0,0,0-.105-.875.918.918,0,0,0-.394-.464,1.243,1.243,0,0,0-.665-.176,1.559,1.559,0,0,0-1.057.377,1.926,1.926,0,0,0-.453,1.47l-.022,3.08Z" transform="translate(-225.796 -432.215)" fill="#2a8335"/>
      <path id="Tracé_773" data-name="Tracé 773" d="M314.291,438.515l.939.13a2.442,2.442,0,0,1-.8,1.515,2.306,2.306,0,0,1-1.562.539,2.419,2.419,0,0,1-1.858-.768,3.079,3.079,0,0,1-.689-2.174,3.932,3.932,0,0,1,.314-1.6,2.115,2.115,0,0,1,.928-1.022,2.734,2.734,0,0,1,1.35-.331,2.331,2.331,0,0,1,1.5.475,2.137,2.137,0,0,1,.74,1.325l-.932.135a1.527,1.527,0,0,0-.464-.857,1.211,1.211,0,0,0-.812-.292,1.482,1.482,0,0,0-1.178.508,2.468,2.468,0,0,0-.463,1.638,2.548,2.548,0,0,0,.424,1.652,1.425,1.425,0,0,0,1.135.525,1.358,1.358,0,0,0,.942-.34A1.707,1.707,0,0,0,314.291,438.515Z" transform="translate(-225.824 -432.215)" fill="#2a8335"/>
      <path id="Tracé_774" data-name="Tracé 774" d="M319.935,438.8l.985.129a2.406,2.406,0,0,1-.875,1.338,2.925,2.925,0,0,1-3.573-.31,2.966,2.966,0,0,1-.711-2.141,3.12,3.12,0,0,1,.748-2.205,2.483,2.483,0,0,1,1.9-.773,2.418,2.418,0,0,1,1.844.783,3.058,3.058,0,0,1,.7,2.171c0,.058,0,.142-.008.256l-4.206-.029a2.178,2.178,0,0,0,.516,1.427,1.573,1.573,0,0,0,1.176.5,1.474,1.474,0,0,0,.9-.272A1.823,1.823,0,0,0,319.935,438.8Zm-3.129-1.568,3.151.022a1.927,1.927,0,0,0-.354-1.07,1.467,1.467,0,0,0-1.18-.561,1.529,1.529,0,0,0-1.112.434A1.752,1.752,0,0,0,316.806,437.236Z" transform="translate(-225.85 -432.216)" fill="#2a8335"/>
      <path id="Tracé_775" data-name="Tracé 775" d="M328.87,438.616l.939.128a2.433,2.433,0,0,1-.8,1.515,2.292,2.292,0,0,1-1.562.54,2.427,2.427,0,0,1-1.856-.769,3.069,3.069,0,0,1-.688-2.176,3.929,3.929,0,0,1,.313-1.6,2.13,2.13,0,0,1,.928-1.022,2.745,2.745,0,0,1,1.35-.332,2.341,2.341,0,0,1,1.5.475,2.14,2.14,0,0,1,.739,1.326l-.932.137a1.552,1.552,0,0,0-.464-.861,1.227,1.227,0,0,0-.813-.292,1.494,1.494,0,0,0-1.178.512,2.461,2.461,0,0,0-.461,1.635,2.55,2.55,0,0,0,.424,1.655,1.419,1.419,0,0,0,1.134.522,1.342,1.342,0,0,0,.94-.338A1.716,1.716,0,0,0,328.87,438.616Z" transform="translate(-225.894 -432.216)" fill="#2a8335"/>
      <path id="Tracé_776" data-name="Tracé 776" d="M330.3,437.871a2.906,2.906,0,0,1,.885-2.315,2.631,2.631,0,0,1,1.778-.615,2.538,2.538,0,0,1,1.9.775,2.9,2.9,0,0,1,.724,2.111,3.728,3.728,0,0,1-.338,1.711,2.31,2.31,0,0,1-.956.962,2.732,2.732,0,0,1-1.364.334,2.532,2.532,0,0,1-1.911-.771A3.028,3.028,0,0,1,330.3,437.871Zm.982.006a2.4,2.4,0,0,0,.461,1.626,1.577,1.577,0,0,0,2.376.014,2.463,2.463,0,0,0,.482-1.649,2.317,2.317,0,0,0-.465-1.588,1.574,1.574,0,0,0-2.371-.018A2.384,2.384,0,0,0,331.286,437.877Z" transform="translate(-225.92 -432.216)" fill="#2a8335"/>
      <path id="Tracé_777" data-name="Tracé 777" d="M336.719,440.734l.039-5.641.855.006-.006.793a1.977,1.977,0,0,1,1.717-.909,1.843,1.843,0,0,1,1.025.269,1.388,1.388,0,0,1,.562.731,2.024,2.024,0,0,1,1.748-.975,1.718,1.718,0,0,1,1.287.472,1.982,1.982,0,0,1,.442,1.435l-.026,3.872-.951-.006.025-3.554a2.662,2.662,0,0,0-.087-.826.8.8,0,0,0-.335-.41,1.068,1.068,0,0,0-.572-.157,1.337,1.337,0,0,0-.99.388,1.748,1.748,0,0,0-.4,1.265l-.021,3.276-.956-.006.025-3.664a1.611,1.611,0,0,0-.227-.957.884.884,0,0,0-.762-.324,1.414,1.414,0,0,0-.748.207,1.217,1.217,0,0,0-.5.619,3.537,3.537,0,0,0-.162,1.178l-.019,2.925Z" transform="translate(-225.951 -432.216)" fill="#2a8335"/>
      <path id="Tracé_778" data-name="Tracé 778" d="M345.808,442.958l.052-7.8.872.006-.006.733a2.157,2.157,0,0,1,.7-.64,1.927,1.927,0,0,1,.941-.208,2.217,2.217,0,0,1,1.271.38,2.284,2.284,0,0,1,.828,1.055,4.065,4.065,0,0,1-.051,3.043,2.374,2.374,0,0,1-2.158,1.416,1.812,1.812,0,0,1-.857-.208,1.939,1.939,0,0,1-.62-.515l-.018,2.746Zm.9-4.945a2.45,2.45,0,0,0,.431,1.612,1.354,1.354,0,0,0,1.064.53,1.387,1.387,0,0,0,1.094-.532,2.561,2.561,0,0,0,.466-1.667,2.5,2.5,0,0,0-.432-1.618,1.34,1.34,0,0,0-1.057-.544,1.38,1.38,0,0,0-1.084.563A2.56,2.56,0,0,0,346.707,438.013Z" transform="translate(-225.994 -432.217)" fill="#2a8335"/>
      <path id="Tracé_779" data-name="Tracé 779" d="M355.584,440.167a3.49,3.49,0,0,1-1.028.63,2.914,2.914,0,0,1-1.053.179,2.041,2.041,0,0,1-1.426-.465,1.5,1.5,0,0,1-.493-1.163,1.559,1.559,0,0,1,.194-.755,1.578,1.578,0,0,1,.5-.546,2.323,2.323,0,0,1,.691-.307,6.909,6.909,0,0,1,.85-.14,8.641,8.641,0,0,0,1.708-.316c0-.13.006-.213.007-.249a1.055,1.055,0,0,0-.266-.826,1.6,1.6,0,0,0-1.087-.33,1.688,1.688,0,0,0-1,.229,1.448,1.448,0,0,0-.482.833l-.932-.132a2.3,2.3,0,0,1,.426-.967,1.85,1.85,0,0,1,.848-.563,3.8,3.8,0,0,1,1.282-.189,3.332,3.332,0,0,1,1.172.178,1.338,1.338,0,0,1,.954,1.082,5.409,5.409,0,0,1,.042.884l-.009,1.275a13.194,13.194,0,0,0,.05,1.687,2.1,2.1,0,0,0,.237.678l-1-.007A1.983,1.983,0,0,1,355.584,440.167Zm-.066-2.135a7.078,7.078,0,0,1-1.563.35,3.689,3.689,0,0,0-.835.186.815.815,0,0,0-.516.76.809.809,0,0,0,.286.638,1.241,1.241,0,0,0,.846.263,1.971,1.971,0,0,0,.984-.235,1.507,1.507,0,0,0,.636-.658,2.317,2.317,0,0,0,.16-.954Z" transform="translate(-226.022 -432.217)" fill="#2a8335"/>
      <path id="Tracé_780" data-name="Tracé 780" d="M357.978,440.878l.038-5.639.861,0-.005.8a2.03,2.03,0,0,1,1.8-.918,2.354,2.354,0,0,1,.935.19,1.474,1.474,0,0,1,.638.486,1.858,1.858,0,0,1,.293.708,5.563,5.563,0,0,1,.046.93l-.022,3.467-.957-.007.024-3.43a2.573,2.573,0,0,0-.107-.875.9.9,0,0,0-.392-.464,1.257,1.257,0,0,0-.665-.177,1.563,1.563,0,0,0-1.058.379,1.918,1.918,0,0,0-.453,1.469l-.022,3.079Z" transform="translate(-226.053 -432.217)" fill="#2a8335"/>
      <path id="Tracé_781" data-name="Tracé 781" d="M364,443.093l-.1-.9a2.1,2.1,0,0,0,.546.088,1.058,1.058,0,0,0,.51-.1.868.868,0,0,0,.316-.3,4.642,4.642,0,0,0,.3-.709c.02-.054.047-.131.088-.234l-2.1-5.666,1.029.008,1.152,3.274c.15.414.283.852.4,1.309a13.418,13.418,0,0,1,.4-1.283l1.228-3.278.955.007-2.185,5.72a11.516,11.516,0,0,1-.544,1.276,1.9,1.9,0,0,1-.589.689,1.38,1.38,0,0,1-.788.216A1.926,1.926,0,0,1,364,443.093Z" transform="translate(-226.079 -432.218)" fill="#2a8335"/>
    </g>
    <g id="Groupe_1060" data-name="Groupe 1060" transform="translate(225.438 377.464)">
      <path id="Tracé_782" data-name="Tracé 782" d="M225.525,377.464l4.1.029-.076,10.988a23.517,23.517,0,0,0,.128,3.392,3.3,3.3,0,0,0,1.239,2.011,4.388,4.388,0,0,0,2.7.771,4.136,4.136,0,0,0,2.634-.694,2.828,2.828,0,0,0,1.077-1.747,22.833,22.833,0,0,0,.208-3.444l.075-11.224,4.094.028-.072,10.657a27.573,27.573,0,0,1-.367,5.161,5.7,5.7,0,0,1-1.244,2.537,6.166,6.166,0,0,1-2.4,1.638,10.355,10.355,0,0,1-3.9.587,11.143,11.143,0,0,1-4.407-.7,6.266,6.266,0,0,1-2.36-1.757,5.579,5.579,0,0,1-1.136-2.259,24.521,24.521,0,0,1-.367-5.15Z" transform="translate(-225.451 -377.464)" fill="#0079be"/>
      <path id="Tracé_783" data-name="Tracé 783" d="M256.037,398l-3.209-.021.041-6.2a9.434,9.434,0,0,0-.191-2.541,1.765,1.765,0,0,0-.659-.9,1.92,1.92,0,0,0-1.113-.327,2.569,2.569,0,0,0-1.5.448,2.3,2.3,0,0,0-.92,1.2,10.49,10.49,0,0,0-.268,2.789l-.039,5.5-3.21-.023.082-12.139,2.987.018-.013,1.783a4.864,4.864,0,0,1,4.018-2.032,4.789,4.789,0,0,1,1.936.4,3.278,3.278,0,0,1,1.33.986,3.472,3.472,0,0,1,.618,1.351,10.116,10.116,0,0,1,.16,2.165Z" transform="translate(-225.545 -377.503)" fill="#0079be"/>
      <path id="Tracé_784" data-name="Tracé 784" d="M259.461,384.211l.021-2.973,3.214.022-.02,2.972ZM259.369,398l.08-12.142,3.216.022-.084,12.143Z" transform="translate(-225.614 -377.482)" fill="#0079be"/>
      <path id="Tracé_785" data-name="Tracé 785" d="M269.235,398.09l-4.809-12.173,3.37.023,2.249,6.212.645,2.074c.18-.527.293-.873.343-1.038.107-.344.221-.687.35-1.028l2.347-6.18,3.307.024-4.906,12.106Z" transform="translate(-225.638 -377.505)" fill="#0079be"/>
      <path id="Tracé_786" data-name="Tracé 786" d="M286.046,394.064l3.2.56a5.276,5.276,0,0,1-1.971,2.669,5.733,5.733,0,0,1-3.338.895,5.446,5.446,0,0,1-4.673-2.1,6.974,6.974,0,0,1-1.173-4.192,6.694,6.694,0,0,1,1.611-4.719,5.21,5.21,0,0,1,4-1.682,5.393,5.393,0,0,1,4.265,1.814q1.553,1.806,1.459,5.495l-8.052-.055a3.274,3.274,0,0,0,.765,2.233,2.447,2.447,0,0,0,1.848.807,1.992,1.992,0,0,0,1.268-.4A2.512,2.512,0,0,0,286.046,394.064Zm.206-3.245a3.093,3.093,0,0,0-.7-2.125,2.32,2.32,0,0,0-3.411.015,2.973,2.973,0,0,0-.687,2.077Z" transform="translate(-225.704 -377.503)" fill="#0079be"/>
      <path id="Tracé_787" data-name="Tracé 787" d="M295.154,398.266l-3.215-.023.082-12.141,2.984.02-.011,1.726a5.267,5.267,0,0,1,1.387-1.6,2.541,2.541,0,0,1,1.4-.381,4.052,4.052,0,0,1,2.109.623l-1.012,2.791a2.863,2.863,0,0,0-1.5-.535,1.831,1.831,0,0,0-1.152.364,2.612,2.612,0,0,0-.742,1.34,19.328,19.328,0,0,0-.3,4.067Z" transform="translate(-225.77 -377.504)" fill="#0079be"/>
      <path id="Tracé_788" data-name="Tracé 788" d="M300.122,394.561l3.229-.47a2.367,2.367,0,0,0,.823,1.427,2.817,2.817,0,0,0,1.76.5,3.183,3.183,0,0,0,1.877-.443,1.022,1.022,0,0,0,.427-.856.825.825,0,0,0-.223-.605,2.515,2.515,0,0,0-1.071-.433,17.26,17.26,0,0,1-4.918-1.6,3.142,3.142,0,0,1-1.426-2.741,3.373,3.373,0,0,1,1.267-2.645,5.825,5.825,0,0,1,3.872-1.05,6.751,6.751,0,0,1,3.7.838,4.122,4.122,0,0,1,1.653,2.413l-3.028.54a1.871,1.871,0,0,0-.733-1.093,2.7,2.7,0,0,0-1.546-.39,3.544,3.544,0,0,0-1.823.343.767.767,0,0,0-.366.651.694.694,0,0,0,.315.583,11.908,11.908,0,0,0,2.991.926,8.94,8.94,0,0,1,3.577,1.451,2.97,2.97,0,0,1,.99,2.4,3.673,3.673,0,0,1-1.412,2.862,6.188,6.188,0,0,1-4.135,1.171,6.792,6.792,0,0,1-3.922-1.03A4.646,4.646,0,0,1,300.122,394.561Z" transform="translate(-225.809 -377.503)" fill="#0079be"/>
      <path id="Tracé_789" data-name="Tracé 789" d="M316.774,389.7l-2.913-.541a4.562,4.562,0,0,1,1.714-2.6,6.221,6.221,0,0,1,3.576-.823,7.689,7.689,0,0,1,3.2.531,3.17,3.17,0,0,1,1.471,1.3,6.637,6.637,0,0,1,.412,2.879l-.064,3.75a12.991,12.991,0,0,0,.141,2.363,6.861,6.861,0,0,0,.564,1.634l-3.177-.022c-.088-.218-.184-.53-.3-.951-.053-.191-.09-.32-.114-.38a5.676,5.676,0,0,1-1.77,1.187,4.945,4.945,0,0,1-2,.388,4.114,4.114,0,0,1-2.948-1.038,3.381,3.381,0,0,1-1.066-2.58,3.478,3.478,0,0,1,.5-1.833,3.222,3.222,0,0,1,1.387-1.224,10.787,10.787,0,0,1,2.562-.732,17.331,17.331,0,0,0,3.124-.767v-.317a1.685,1.685,0,0,0-.442-1.329,2.761,2.761,0,0,0-1.725-.4,2.251,2.251,0,0,0-1.338.327A2.346,2.346,0,0,0,316.774,389.7Zm4.282,2.636a19.521,19.521,0,0,1-1.955.479,5.9,5.9,0,0,0-1.754.548,1.332,1.332,0,0,0-.637,1.13,1.585,1.585,0,0,0,.492,1.169,1.76,1.76,0,0,0,1.281.5,2.775,2.775,0,0,0,1.66-.558,2.009,2.009,0,0,0,.773-1.059,6.418,6.418,0,0,0,.134-1.565Z" transform="translate(-225.874 -377.504)" fill="#0079be"/>
      <path id="Tracé_790" data-name="Tracé 790" d="M327.408,398.463l.112-16.763,3.21.023-.11,16.764Z" transform="translate(-225.94 -377.484)" fill="#0079be"/>
    </g>
    <g id="Groupe_1062" data-name="Groupe 1062" transform="translate(225.78 402.963)">
      <path id="Tracé_791" data-name="Tracé 791" d="M225.8,423.371l.138-20.285,6.131.042,3.589,13.861,3.728-13.813,6.149.044-.137,20.286-3.811-.028.109-15.971-4.132,15.944-3.945-.026-3.908-16L229.6,423.4Z" transform="translate(-225.795 -403.086)" fill="#0079be"/>
      <g id="Groupe_1061" data-name="Groupe 1061" transform="translate(22.518 3.168)">
        <path id="Tracé_792" data-name="Tracé 792" d="M256.466,419.234l3.233.566a5.306,5.306,0,0,1-1.984,2.7,5.806,5.806,0,0,1-3.382.908,5.5,5.5,0,0,1-4.724-2.124,7.029,7.029,0,0,1-1.187-4.239,6.757,6.757,0,0,1,1.63-4.772,5.238,5.238,0,0,1,4.046-1.7,5.46,5.46,0,0,1,4.317,1.839q1.566,1.821,1.473,5.553l-8.138-.055a3.3,3.3,0,0,0,.764,2.254,2.463,2.463,0,0,0,1.873.818,1.959,1.959,0,0,0,1.281-.408A2.519,2.519,0,0,0,256.466,419.234Zm.209-3.28a3.141,3.141,0,0,0-.712-2.15,2.225,2.225,0,0,0-1.686-.743,2.263,2.263,0,0,0-1.766.757,3.053,3.053,0,0,0-.7,2.1Z" transform="translate(-248.422 -406.29)" fill="#0079be"/>
        <path id="Tracé_793" data-name="Tracé 793" d="M273.831,423.24l-3.022-.019.011-1.8a4.866,4.866,0,0,1-1.784,1.557,4.589,4.589,0,0,1-2.066.5,4.665,4.665,0,0,1-3.613-1.731,8.345,8.345,0,0,1,.02-9.506,4.813,4.813,0,0,1,3.724-1.6,4.584,4.584,0,0,1,3.548,1.736l.044-6.1,3.253.024Zm-8.632-6.466a5.674,5.674,0,0,0,.525,2.854,2.446,2.446,0,0,0,2.185,1.283,2.4,2.4,0,0,0,1.919-.941,4.42,4.42,0,0,0,.8-2.846,4.828,4.828,0,0,0-.738-3.049,2.513,2.513,0,0,0-3.892-.039A4.132,4.132,0,0,0,265.2,416.774Z" transform="translate(-248.486 -406.269)" fill="#0079be"/>
        <path id="Tracé_794" data-name="Tracé 794" d="M277.2,409.6l.02-3.006,3.249.021-.021,3.005Zm-.1,13.94.084-12.278,3.248.022-.083,12.28Z" transform="translate(-248.559 -406.271)" fill="#0079be"/>
        <path id="Tracé_795" data-name="Tracé 795" d="M294.476,414.752l-3.206.557a2.313,2.313,0,0,0-.719-1.452,2.233,2.233,0,0,0-1.485-.493,2.435,2.435,0,0,0-1.944.823,4.291,4.291,0,0,0-.745,2.8,4.963,4.963,0,0,0,.717,3.092,2.4,2.4,0,0,0,1.966.913,2.162,2.162,0,0,0,1.516-.517,3.151,3.151,0,0,0,.846-1.8l3.187.567a5.639,5.639,0,0,1-1.926,3.3,5.914,5.914,0,0,1-3.793,1.1,5.625,5.625,0,0,1-4.283-1.726,7.753,7.753,0,0,1,.07-9.444,5.718,5.718,0,0,1,4.359-1.665,5.944,5.944,0,0,1,3.564.993A5.344,5.344,0,0,1,294.476,414.752Z" transform="translate(-248.588 -406.291)" fill="#0079be"/>
        <path id="Tracé_796" data-name="Tracé 796" d="M299.43,414.906l-2.942-.555a4.628,4.628,0,0,1,1.73-2.625,6.3,6.3,0,0,1,3.615-.83,7.7,7.7,0,0,1,3.233.537,3.168,3.168,0,0,1,1.486,1.317,6.724,6.724,0,0,1,.414,2.91l-.059,3.791a12.863,12.863,0,0,0,.144,2.391,6.828,6.828,0,0,0,.569,1.654l-3.214-.026a9.879,9.879,0,0,1-.309-.958c-.051-.191-.09-.316-.112-.384a5.829,5.829,0,0,1-1.788,1.2,5.14,5.14,0,0,1-2.025.389,4.2,4.2,0,0,1-2.985-1.05,3.425,3.425,0,0,1-1.075-2.609,3.483,3.483,0,0,1,.51-1.851,3.237,3.237,0,0,1,1.4-1.24,10.855,10.855,0,0,1,2.592-.738,17.487,17.487,0,0,0,3.158-.778l0-.322a1.682,1.682,0,0,0-.45-1.34,2.772,2.772,0,0,0-1.75-.408,2.311,2.311,0,0,0-1.352.329A2.386,2.386,0,0,0,299.43,414.906Zm4.333,2.66a18.116,18.116,0,0,1-1.98.486,5.943,5.943,0,0,0-1.772.554,1.356,1.356,0,0,0-.644,1.142,1.573,1.573,0,0,0,.5,1.182,1.751,1.751,0,0,0,1.288.5,2.826,2.826,0,0,0,1.687-.566,2.016,2.016,0,0,0,.778-1.071,6.408,6.408,0,0,0,.137-1.581Z" transform="translate(-248.65 -406.291)" fill="#0079be"/>
      </g>
    </g>
    <g id="Groupe_1063" data-name="Groupe 1063" transform="translate(315.253 410.205)">
      <path id="Tracé_797" data-name="Tracé 797" d="M322.147,418.751l.006-2.177,5.624.017-.015,5.146a7.127,7.127,0,0,1-2.382,1.389,8.69,8.69,0,0,1-3.152.592,7.063,7.063,0,0,1-3.528-.859,5.431,5.431,0,0,1-2.255-2.438,7.867,7.867,0,0,1-.746-3.444,7.46,7.46,0,0,1,.852-3.583,5.747,5.747,0,0,1,2.48-2.4,6.716,6.716,0,0,1,3.1-.635,6.186,6.186,0,0,1,3.758,1.022,4.526,4.526,0,0,1,1.728,2.791l-2.591.472a2.715,2.715,0,0,0-1.02-1.5,3.1,3.1,0,0,0-1.882-.561,3.546,3.546,0,0,0-2.718,1.079,4.568,4.568,0,0,0-1.017,3.213,5.085,5.085,0,0,0,1.007,3.451,3.425,3.425,0,0,0,2.675,1.156,4.571,4.571,0,0,0,1.647-.316,5.663,5.663,0,0,0,1.414-.775l.006-1.639Z" transform="translate(-315.699 -410.363)" fill="#2a8335"/>
      <path id="Tracé_798" data-name="Tracé 798" d="M332.581,423.548l-2.477-.009.031-9.357,2.295.008,0,1.335a3.959,3.959,0,0,1,1.068-1.241,1.927,1.927,0,0,1,1.07-.3,3.131,3.131,0,0,1,1.628.474l-.772,2.155a2.149,2.149,0,0,0-1.16-.409,1.443,1.443,0,0,0-.885.281,1.994,1.994,0,0,0-.57,1.039,14.778,14.778,0,0,0-.213,3.136Z" transform="translate(-315.768 -410.38)" fill="#2a8335"/>
      <path id="Tracé_799" data-name="Tracé 799" d="M336.707,418.752a5.056,5.056,0,0,1,.616-2.386,4.163,4.163,0,0,1,1.725-1.758,5.094,5.094,0,0,1,2.493-.6,4.638,4.638,0,0,1,3.472,1.391,4.735,4.735,0,0,1,1.345,3.487,4.836,4.836,0,0,1-1.378,3.517,4.631,4.631,0,0,1-3.453,1.381,5.386,5.386,0,0,1-2.45-.589,4,4,0,0,1-1.771-1.709A5.752,5.752,0,0,1,336.707,418.752Zm2.529.135a3.111,3.111,0,0,0,.661,2.135,2.155,2.155,0,0,0,3.252.009,3.773,3.773,0,0,0,.015-4.262,2.163,2.163,0,0,0-3.255-.012A3.092,3.092,0,0,0,339.236,418.887Z" transform="translate(-315.8 -410.38)" fill="#2a8335"/>
      <path id="Tracé_800" data-name="Tracé 800" d="M354.493,423.613l.01-1.4a3.783,3.783,0,0,1-3.11,1.6,3.512,3.512,0,0,1-1.691-.419,2.483,2.483,0,0,1-1.077-1.162,5.2,5.2,0,0,1-.328-2.074l.017-5.922,2.473.009-.014,4.3a11.609,11.609,0,0,0,.134,2.421,1.327,1.327,0,0,0,.5.7,1.515,1.515,0,0,0,.916.266,1.977,1.977,0,0,0,1.137-.345,1.771,1.771,0,0,0,.687-.866,9.911,9.911,0,0,0,.2-2.522l.014-3.947,2.47.007-.026,9.355Z" transform="translate(-315.855 -410.382)" fill="#2a8335"/>
      <path id="Tracé_801" data-name="Tracé 801" d="M359.37,414.269l2.3.007,0,1.377a3.456,3.456,0,0,1,1.222-1.141,3.3,3.3,0,0,1,1.7-.437,3.575,3.575,0,0,1,2.763,1.281,5.183,5.183,0,0,1,1.125,3.564,5.286,5.286,0,0,1-1.154,3.639,3.577,3.577,0,0,1-2.78,1.3,3.158,3.158,0,0,1-1.4-.314,4.7,4.7,0,0,1-1.326-1.061l-.012,4.711-2.477,0ZM361.8,418.8a3.6,3.6,0,0,0,.62,2.325,1.907,1.907,0,0,0,1.521.762,1.785,1.785,0,0,0,1.436-.687,3.551,3.551,0,0,0,.583-2.268,3.389,3.389,0,0,0-.585-2.185,1.818,1.818,0,0,0-1.46-.718,1.9,1.9,0,0,0-1.51.7A3.14,3.14,0,0,0,361.8,418.8Z" transform="translate(-315.908 -410.381)" fill="#2a8335"/>
    </g>
    <path id="Tracé_802" data-name="Tracé 802" d="M363.047,451.19a785.113,785.113,0,0,0-82.855,3.424c-15.839,1.438-31.026,3.187-45.152,5.153a38.765,38.765,0,0,0-6.554,2,35.993,35.993,0,0,0-5.76,2.539c20.669-3.725,47.7-7.068,77.253-9.282,25.718-1.928,49.486-2.709,68.788-2.461a6.141,6.141,0,0,0-2.98-1.093A12.876,12.876,0,0,0,363.047,451.19Z" transform="translate(0 -0.353)" fill="url(#linear-gradient)"/>
    <g id="Groupe_1064" data-name="Groupe 1064" transform="translate(367.695 410.3)">
      <path id="Tracé_803" data-name="Tracé 803" d="M372.757,412.582a2.182,2.182,0,1,1-2.163-2.124A2.139,2.139,0,0,1,372.757,412.582Zm-3.82,0a1.653,1.653,0,0,0,1.657,1.7,1.625,1.625,0,0,0,1.618-1.683,1.639,1.639,0,1,0-3.275-.013Zm1.308,1.1h-.492V411.56a5.59,5.59,0,0,1,.816-.065,1.137,1.137,0,0,1,.724.167.536.536,0,0,1,.221.452.548.548,0,0,1-.441.506v.026c.206.066.31.234.376.518a1.864,1.864,0,0,0,.154.517h-.518a1.632,1.632,0,0,1-.168-.517c-.039-.22-.169-.324-.441-.324h-.233Zm.014-1.19h.231c.273,0,.494-.091.494-.31,0-.2-.143-.324-.453-.324a1.1,1.1,0,0,0-.272.027Z" transform="translate(-368.394 -410.458)" fill="#2a8335"/>
    </g>
  </g>
</svg>
