<svg xmlns="http://www.w3.org/2000/svg" width="145.678" height="141.113" viewBox="0 0 145.678 141.113">
  <g id="Groupe_1217" data-name="Groupe 1217" transform="translate(-474.875 -430.467)">
    <g id="Groupe_1176" data-name="Groupe 1176" transform="translate(474.875 458.325)">
      <path id="Tracé_837" data-name="Tracé 837" d="M488.676,477.7a13.8,13.8,0,1,1,13.8-13.8A13.816,13.816,0,0,1,488.676,477.7Zm0-26.18a12.381,12.381,0,1,0,12.38,12.379A12.394,12.394,0,0,0,488.676,451.519Z" transform="translate(-474.875 -450.1)" fill="#2e2e2e"/>
    </g>
    <g id="Groupe_1193" data-name="Groupe 1193" transform="translate(483.135 469.088)">
      <g id="Groupe_1177" data-name="Groupe 1177">
        <rect id="Rectangle_515" data-name="Rectangle 515" width="135.29" height="89.655" fill="#7ad1ee"/>
      </g>
      <g id="Groupe_1178" data-name="Groupe 1178" transform="translate(8.316 5.026)">
        <path id="Tracé_838" data-name="Tracé 838" d="M546.579,545.122c0-9.383,15.455-8.831,15.455-8.831h44.707V461.234H562.034s-15.455-.551-15.455,8.83h.139c0-9.38-15.455-8.83-15.455-8.83H486.557v75.057h44.706s15.455-.552,15.455,8.831Z" transform="translate(-486.557 -461.228)" fill="#fff"/>
      </g>
      <g id="Groupe_1179" data-name="Groupe 1179" transform="translate(6.843 4.063)">
        <path id="Tracé_839" data-name="Tracé 839" d="M545.842,545.862h-.3v-.709a8.977,8.977,0,0,1,.062-1.053c-1.006-6.73-11.986-7.073-14.186-7.073-.285,0-.448,0-.456.006H485.519V460.555h45.414s.179-.006.479-.006c2.158,0,12.044.322,14.907,6.074,2.866-5.752,12.75-6.074,14.91-6.074.321,0,.5.006.5.006h45.391v76.477H561.707c-.033,0-.2-.006-.481-.006-2.2,0-13.183.343-14.189,7.073a9,9,0,0,1,.062,1.053v.709h-1.257Zm.793-4.746c3.208-5.207,12.505-5.508,14.591-5.508.325,0,.505.006.505.006H605.7V461.974h-44c-.033,0-.194-.006-.477-.006-2.2,0-13.187.342-14.193,7.075a9.023,9.023,0,0,1,.062,1.053v.709H545.68l-.139-.709a9,9,0,0,1,.062-1.053c-1.006-6.733-11.99-7.075-14.191-7.075-.284,0-.444.006-.451.006H486.938v73.639h44s.18-.006.484-.006c2.084,0,11.381.3,14.589,5.508Z" transform="translate(-485.519 -460.549)" fill="#2e2e2e"/>
      </g>
      <g id="Groupe_1184" data-name="Groupe 1184" transform="translate(16.934 43.879)">
        <g id="Groupe_1180" data-name="Groupe 1180">
          <rect id="Rectangle_516" data-name="Rectangle 516" width="39.334" height="1.419" fill="#2e2e2e"/>
        </g>
        <g id="Groupe_1181" data-name="Groupe 1181" transform="translate(0 6.105)">
          <rect id="Rectangle_517" data-name="Rectangle 517" width="39.334" height="1.419" fill="#2e2e2e"/>
        </g>
        <g id="Groupe_1182" data-name="Groupe 1182" transform="translate(0 12.208)">
          <rect id="Rectangle_518" data-name="Rectangle 518" width="39.334" height="1.419" fill="#2e2e2e"/>
        </g>
        <g id="Groupe_1183" data-name="Groupe 1183" transform="translate(0 18.31)">
          <rect id="Rectangle_519" data-name="Rectangle 519" width="39.334" height="1.419" fill="#2e2e2e"/>
        </g>
      </g>
      <g id="Groupe_1187" data-name="Groupe 1187" transform="translate(75.595 17.432)">
        <g id="Groupe_1185" data-name="Groupe 1185">
          <rect id="Rectangle_520" data-name="Rectangle 520" width="39.331" height="1.419" fill="#2e2e2e"/>
        </g>
        <g id="Groupe_1186" data-name="Groupe 1186" transform="translate(0 6.105)">
          <rect id="Rectangle_521" data-name="Rectangle 521" width="39.331" height="1.419" fill="#2e2e2e"/>
        </g>
      </g>
      <g id="Groupe_1188" data-name="Groupe 1188" transform="translate(18.63 14.073)">
        <rect id="Rectangle_522" data-name="Rectangle 522" width="34.924" height="22.717" fill="#c5d8de"/>
      </g>
      <g id="Groupe_1189" data-name="Groupe 1189" transform="translate(77.29 45.777)">
        <rect id="Rectangle_523" data-name="Rectangle 523" width="14.75" height="19.072" fill="#c5d8de"/>
      </g>
      <g id="Groupe_1190" data-name="Groupe 1190" transform="translate(98.651 45.777)">
        <rect id="Rectangle_524" data-name="Rectangle 524" width="14.75" height="19.072" fill="#c5d8de"/>
      </g>
      <g id="Groupe_1191" data-name="Groupe 1191" transform="translate(23.105 20.686)">
        <path id="Tracé_840" data-name="Tracé 840" d="M510.773,479.161a6.9,6.9,0,1,1-6.895-6.9A6.9,6.9,0,0,1,510.773,479.161Z" transform="translate(-496.98 -472.264)" fill="#fff"/>
      </g>
      <g id="Groupe_1192" data-name="Groupe 1192" transform="translate(32.988 18.499)">
        <path id="Tracé_841" data-name="Tracé 841" d="M508.1,479.036a4.157,4.157,0,1,1,4.159-4.155A4.161,4.161,0,0,1,508.1,479.036Zm0-6.895a2.738,2.738,0,1,0,2.74,2.74A2.741,2.741,0,0,0,508.1,472.142Z" transform="translate(-503.945 -470.723)" fill="#2e2e2e"/>
      </g>
    </g>
    <g id="Groupe_1207" data-name="Groupe 1207" transform="translate(494.604 430.467)">
      <g id="Groupe_1200" data-name="Groupe 1200" transform="translate(0.71 9.045)">
        <rect id="Rectangle_526" data-name="Rectangle 526" width="60.22" height="8.145" fill="#c5d8de"/>
      </g>
      <g id="Groupe_1201" data-name="Groupe 1201" transform="translate(0 8.336)">
        <path id="Tracé_846" data-name="Tracé 846" d="M550.418,445.906H488.779v-9.564h61.639Zm-60.22-1.419H549v-6.726H490.2Z" transform="translate(-488.779 -436.342)" fill="#2e2e2e"/>
      </g>
      <g id="Groupe_1202" data-name="Groupe 1202" transform="translate(60.414 9.791)">
        <path id="Tracé_847" data-name="Tracé 847" d="M538.981,444.025h-7.625v-6.658h7.625Zm-6.206-1.419h4.787v-3.82h-4.787Z" transform="translate(-531.356 -437.367)" fill="#2e2e2e"/>
      </g>
      <g id="Groupe_1203" data-name="Groupe 1203" transform="translate(67.524 12.41)">
        <rect id="Rectangle_527" data-name="Rectangle 527" width="3.683" height="1.419" fill="#2e2e2e"/>
      </g>
      <g id="Groupe_1204" data-name="Groupe 1204" transform="translate(6.192 2.35)">
        <path id="Tracé_848" data-name="Tracé 848" d="M494.562,439.328h-1.419a7.468,7.468,0,0,1,7.689-7.205h7v1.419h-7A6.049,6.049,0,0,0,494.562,439.328Z" transform="translate(-493.143 -432.123)" fill="#2e2e2e"/>
      </g>
      <g id="Groupe_1205" data-name="Groupe 1205" transform="translate(6.205 9.239)">
        <rect id="Rectangle_528" data-name="Rectangle 528" width="1.419" height="7.757" fill="#2e2e2e"/>
      </g>
      <g id="Groupe_1206" data-name="Groupe 1206" transform="translate(20.533)">
        <path id="Tracé_849" data-name="Tracé 849" d="M506.309,436.585a3.059,3.059,0,1,1,3.058-3.059A3.064,3.064,0,0,1,506.309,436.585Zm0-4.7a1.64,1.64,0,1,0,1.639,1.64A1.642,1.642,0,0,0,506.309,431.886Z" transform="translate(-503.25 -430.467)" fill="#2e2e2e"/>
      </g>
    </g>
    <g id="Groupe_1208" data-name="Groupe 1208" transform="translate(595.386 455.048)">
      <rect id="Rectangle_529" data-name="Rectangle 529" width="6.18" height="6.18" transform="translate(0 6.18) rotate(-90)" fill="#2e2e2e"/>
    </g>
    <g id="Groupe_1209" data-name="Groupe 1209" transform="translate(521.35 453.679)">
      <path id="Tracé_850" data-name="Tracé 850" d="M519.025,455.875l-11.4-4.337,11.385-4.659,66.317-.053.01,9Z" transform="translate(-507.629 -446.826)" fill="#ffe241"/>
    </g>
    <g id="Groupe_1210" data-name="Groupe 1210" transform="translate(521.35 453.776)">
      <path id="Tracé_851" data-name="Tracé 851" d="M507.629,451.509l11.278,4.293v-8.907Z" transform="translate(-507.629 -446.895)" fill="#c5d8de"/>
    </g>
    <g id="Groupe_1211" data-name="Groupe 1211" transform="translate(532.74 457.516)">
      <rect id="Rectangle_530" data-name="Rectangle 530" width="66.315" height="1.419" fill="#fff"/>
    </g>
    <g id="Groupe_1212" data-name="Groupe 1212" transform="translate(521.35 456.401)">
      <path id="Tracé_852" data-name="Tracé 852" d="M507.629,450.734l4.859,1.851v-3.841Z" transform="translate(-507.629 -448.744)" fill="#2e2e2e"/>
    </g>
    <g id="Groupe_1213" data-name="Groupe 1213" transform="translate(612.459 456.706)">
      <path id="Tracé_853" data-name="Tracé 853" d="M575.886,457.051a4.046,4.046,0,1,1,4.047-4.042A4.049,4.049,0,0,1,575.886,457.051Zm0-6.673a2.627,2.627,0,1,0,2.628,2.631A2.632,2.632,0,0,0,575.886,450.378Z" transform="translate(-571.839 -448.959)" fill="#2e2e2e"/>
    </g>
    <g id="Groupe_1214" data-name="Groupe 1214" transform="translate(573.126 441.818)">
      <rect id="Rectangle_531" data-name="Rectangle 531" width="17.455" height="1.419" fill="#2e2e2e"/>
    </g>
    <g id="Groupe_1215" data-name="Groupe 1215" transform="translate(492.013 564.513)">
      <rect id="Rectangle_532" data-name="Rectangle 532" width="38.504" height="1.419" fill="#2e2e2e"/>
    </g>
    <g id="Groupe_1216" data-name="Groupe 1216" transform="translate(525.383 570.161)">
      <rect id="Rectangle_533" data-name="Rectangle 533" width="36.963" height="1.419" fill="#2e2e2e"/>
    </g>
  </g>
</svg>
