<svg id="Groupe_355" data-name="Groupe 355" xmlns="http://www.w3.org/2000/svg" width="42.991" height="42.99" viewBox="0 0 42.991 42.99">
  <g id="Groupe_334" data-name="Groupe 334">
    <path id="Tracé_171" data-name="Tracé 171" d="M274.314,503.568a21.5,21.5,0,1,1-21.5-21.5A21.5,21.5,0,0,1,274.314,503.568Z" transform="translate(-231.323 -482.072)" fill="#c5d8de"/>
  </g>
  <g id="Groupe_335" data-name="Groupe 335" transform="translate(3.963 3.962)">
    <path id="Tracé_172" data-name="Tracé 172" d="M270.752,503.969a17.532,17.532,0,1,1-17.532-17.534A17.531,17.531,0,0,1,270.752,503.969Z" transform="translate(-235.688 -486.435)" fill="#fff"/>
  </g>
  <g id="Groupe_336" data-name="Groupe 336" transform="translate(10.614 11.458)">
    <path id="Tracé_173" data-name="Tracé 173" d="M253.962,506.432l-10.95-4.338.334-.844,10.412,4.125,11.276-10.683.624.66Z" transform="translate(-243.012 -494.691)" fill="#2e2e2e"/>
  </g>
  <g id="Groupe_339" data-name="Groupe 339" transform="translate(21.209 5.542)">
    <g id="Groupe_337" data-name="Groupe 337">
      <rect id="Rectangle_224" data-name="Rectangle 224" width="0.908" height="2.013" fill="#2e2e2e"/>
    </g>
    <g id="Groupe_338" data-name="Groupe 338" transform="translate(0 30.161)">
      <rect id="Rectangle_225" data-name="Rectangle 225" width="0.908" height="2.015" fill="#2e2e2e"/>
    </g>
  </g>
  <g id="Groupe_342" data-name="Groupe 342" transform="translate(13.226 7.47)">
    <g id="Groupe_340" data-name="Groupe 340" transform="translate(0 0)">
      <rect id="Rectangle_226" data-name="Rectangle 226" width="0.908" height="2.015" transform="matrix(0.866, -0.5, 0.5, 0.866, 0, 0.454)" fill="#2e2e2e"/>
    </g>
    <g id="Groupe_341" data-name="Groupe 341" transform="translate(15.08 26.119)">
      <rect id="Rectangle_227" data-name="Rectangle 227" width="0.908" height="2.015" transform="matrix(0.866, -0.5, 0.5, 0.866, 0, 0.454)" fill="#2e2e2e"/>
    </g>
  </g>
  <g id="Groupe_345" data-name="Groupe 345" transform="translate(7.503 13.191)">
    <g id="Groupe_343" data-name="Groupe 343" transform="translate(0 0)">
      <rect id="Rectangle_228" data-name="Rectangle 228" width="0.909" height="2.016" transform="translate(0 0.787) rotate(-60.024)" fill="#2e2e2e"/>
    </g>
    <g id="Groupe_344" data-name="Groupe 344" transform="translate(26.121 15.081)">
      <rect id="Rectangle_229" data-name="Rectangle 229" width="0.908" height="2.014" transform="translate(0 0.787) rotate(-60.049)" fill="#2e2e2e"/>
    </g>
  </g>
  <g id="Groupe_348" data-name="Groupe 348" transform="translate(5.575 21.175)">
    <g id="Groupe_346" data-name="Groupe 346">
      <rect id="Rectangle_230" data-name="Rectangle 230" width="2.015" height="0.908" fill="#2e2e2e"/>
    </g>
    <g id="Groupe_347" data-name="Groupe 347" transform="translate(30.161)">
      <rect id="Rectangle_231" data-name="Rectangle 231" width="2.015" height="0.908" fill="#2e2e2e"/>
    </g>
  </g>
  <g id="Groupe_351" data-name="Groupe 351" transform="translate(7.503 13.192)">
    <g id="Groupe_349" data-name="Groupe 349" transform="translate(0 15.081)">
      <rect id="Rectangle_232" data-name="Rectangle 232" width="2.015" height="0.908" transform="matrix(0.867, -0.499, 0.499, 0.867, 0, 1.005)" fill="#2e2e2e"/>
    </g>
    <g id="Groupe_350" data-name="Groupe 350" transform="translate(26.12 0)">
      <rect id="Rectangle_233" data-name="Rectangle 233" width="2.015" height="0.907" transform="matrix(0.866, -0.5, 0.5, 0.866, 0, 1.008)" fill="#2e2e2e"/>
    </g>
  </g>
  <g id="Groupe_354" data-name="Groupe 354" transform="translate(13.226 7.47)">
    <g id="Groupe_352" data-name="Groupe 352" transform="translate(0 26.119)">
      <rect id="Rectangle_234" data-name="Rectangle 234" width="2.015" height="0.908" transform="translate(0 1.745) rotate(-60.005)" fill="#2e2e2e"/>
    </g>
    <g id="Groupe_353" data-name="Groupe 353" transform="translate(15.08 0)">
      <rect id="Rectangle_235" data-name="Rectangle 235" width="2.015" height="0.908" transform="translate(0 1.745) rotate(-60.005)" fill="#2e2e2e"/>
    </g>
  </g>
</svg>
